<?xml version="1.0" standalone="no"?>
<!DOCTYPE svg PUBLIC "-//W3C//DTD SVG 1.1//EN" "http://www.w3.org/Graphics/SVG/1.1/DTD/svg11.dtd" >
<!--
2013-9-30: Created.
-->
<svg>
<metadata>
Created by iconfont
</metadata>
<defs>

<font id="iconfont" horiz-adv-x="1024" >
  <font-face
    font-family="iconfont"
    font-weight="500"
    font-stretch="normal"
    units-per-em="1024"
    ascent="896"
    descent="-128"
  />
    <missing-glyph />
    
    <glyph glyph-name="x" unicode="x" horiz-adv-x="1001"
d="M281 543q-27 -1 -53 -1h-83q-18 0 -36.5 -6t-32.5 -18.5t-23 -32t-9 -45.5v-76h912v41q0 16 -0.5 30t-0.5 18q0 13 -5 29t-17 29.5t-31.5 22.5t-49.5 9h-133v-97h-438v97zM955 310v-52q0 -23 0.5 -52t0.5 -58t-10.5 -47.5t-26 -30t-33 -16t-31.5 -4.5q-14 -1 -29.5 -0.5
t-29.5 0.5h-32l-45 128h-439l-44 -128h-29h-34q-20 0 -45 1q-25 0 -41 9.5t-25.5 23t-13.5 29.5t-4 30v167h911zM163 247q-12 0 -21 -8.5t-9 -21.5t9 -21.5t21 -8.5q13 0 22 8.5t9 21.5t-9 21.5t-22 8.5zM316 123q-8 -26 -14 -48q-5 -19 -10.5 -37t-7.5 -25t-3 -15t1 -14.5
t9.5 -10.5t21.5 -4h37h67h81h80h64h36q23 0 34 12t2 38q-5 13 -9.5 30.5t-9.5 34.5q-5 19 -11 39h-368zM336 498v228q0 11 2.5 23t10 21.5t20.5 15.5t34 6h188q31 0 51.5 -14.5t20.5 -52.5v-227h-327z" />
    

    
    <glyph glyph-name="warn" unicode="&#58957;" d="M512 745.323415c-245.955828 0-445.342106-199.37791-445.342106-445.323415s199.386278-445.323415 445.342106-445.323415S957.342106 54.054495 957.342106 300 757.955828 745.323415 512 745.323415zM574.165391-2.719556c0-9.611915-7.792804-17.404392-17.405122-17.404392l-90.544909 0c-9.612319 0-17.405122 7.792477-17.405122 17.404392l0 94.172823c0 9.611915 7.792804 17.404392 17.405122 17.404392l90.544909 0c9.612319 0 17.405122-7.792477 17.405122-17.404392L574.165391-2.719556zM576.223346 204.030251c0-9.611915-7.792804-17.404392-17.405122-17.404392L465.360862 186.62586c-9.612319 0-17.405122 7.792477-17.405122 17.404392L447.95574 594.765397c0 9.611915 7.792804 17.404392 17.405122 17.404392l93.457361 0c9.612319 0 17.405122-7.792477 17.405122-17.404392L576.223346 204.030251z"  horiz-adv-x="1024" />

    
    <glyph glyph-name="ttpodicon" unicode="&#58915;" d="M834.431 348.638c4.397-21.457 6.708-43.674 6.708-66.432 0-181.782-147.361-329.139-329.139-329.139-181.782 0-329.143 147.357-329.143 329.139s147.361 329.143 329.143 329.143c90.89 0 173.176-36.841 232.738-96.404l-38.786-38.788c-49.638 49.636-118.212 80.336-193.953 80.336-151.487 0-274.286-122.8-274.286-274.286 0-151.479 122.8-274.282 274.286-274.282 151.483 0 274.293 122.803 274.293 274.282 0 5.95-0.211 11.85-0.584 17.706l48.723 48.725zM820.638 505.153l38.791-38.788c0 0-19.281-19.28-48.743-48.746-69.528-69.528-195.782-195.778-259.36-259.354l0.003-0.003-38.791-38.784-181.010 181.018 38.78 38.791 142.232-142.236c67.11 67.112 204.059 204.065 270.41 270.408 23.139 23.146 37.687 37.694 37.688 37.694z"  horiz-adv-x="1024" />

    
    <glyph glyph-name="system" unicode="&#58898;" d="M883.824 292.994h-46.922c-7.612-27.613-18.546-53.773-32.526-78.063l43.356-43.323c27.752-27.751 27.752-72.735 0-100.485l-25.121-25.122c-27.751-27.752-72.735-27.752-100.486 0l-43.634 43.634c-24.188-13.771-50.278-24.535-77.751-32.007v-45.501c0-39.242-31.8-71.040-71.040-71.040h-35.502c-39.24 0-71.074 31.798-71.074 71.040v45.501c-27.439 7.473-53.53 18.236-77.752 32.007l-43.635-43.634c-27.715-27.752-72.699-27.752-100.45 0l-25.122 25.122c-27.751 27.75-27.751 72.734 0 100.485l43.357 43.323c-13.979 24.29-24.914 50.45-32.561 78.063h-46.887c-39.24 0-71.040 31.8-71.040 71.004v35.538c0 39.24 31.8 71.041 71.040 71.041h46.332c7.336 27.335 17.856 53.356 31.454 77.507l-41.697 41.663c-27.751 27.749-27.751 72.733 0 100.485l25.122 25.12c27.751 27.754 72.735 27.754 100.45 0l40.867-40.9c25.018 14.569 52.007 25.917 80.521 33.704v47.717c0 39.243 31.834 71.040 71.074 71.040h35.502c39.24 0 71.040-31.797 71.040-71.040v-47.717c28.546-7.785 55.536-19.134 80.52-33.704l40.866 40.9c27.751 27.754 72.735 27.754 100.486 0l25.121-25.12c27.752-27.752 27.752-72.736 0-100.485l-41.696-41.663c13.599-24.152 24.084-50.173 31.453-77.507h46.333c39.24 0 71.038-31.801 71.038-71.041v-35.538c-0.002-39.204-31.801-71.004-71.040-71.004zM511.948 576.044c-107.89 0-195.365-87.475-195.365-195.367 0-107.89 87.474-195.365 195.365-195.365 107.892 0 195.367 87.474 195.367 195.365 0 107.89-87.473 195.367-195.367 195.367zM511.948 294.104c-49.031 0-88.824 39.722-88.824 88.788 0 49.069 39.793 88.79 88.824 88.79 49.033 0 88.792-39.721 88.792-88.79 0-49.065-39.76-88.788-88.792-88.788z"  horiz-adv-x="1024" />

    
    <glyph glyph-name="del" unicode="&#58900;" d="M660.496 533.172h49.67v-397.341h-49.67v397.341zM536.328 135.832v397.341h-49.666v-397.341h24.833zM312.824 533.172h49.669v-397.341h-49.669v397.341zM710.166 682.173v99.335c0 27.307-22.339 49.666-49.67 49.666l-298.002 0c-27.331 0-49.669-22.36-49.669-49.666v-99.335h-248.336v-49.668h99.336v-645.676c0-27.309 22.335-49.668 49.666-49.668h596.008c27.331 0 49.67 22.36 49.67 49.668l-0 645.677h99.332v49.668h-248.336zM362.493 781.508h298.002v-99.335l-298.002 0v99.335zM809.498-13.17h-596.008v645.676h596.008v-645.676z"  horiz-adv-x="1024" />

    
    <glyph glyph-name="close" unicode="&#58914;" d="M660.518 213.129c-5.903 0-11.804 2.201-16.306 6.703l-301.846 301.796c-9.003 9.003-9.003 23.609 0 32.611s23.608 9.002 32.611 0l301.847-301.797c9.002-9.003 9.002-23.607 0-32.61-4.502-4.501-10.404-6.703-16.305-6.703zM358.67 213.129c-5.901 0-11.804 2.201-16.304 6.703-9.003 9.003-9.003 23.607 0 32.61l301.846 301.797c9.003 9.002 23.608 9.002 32.611 0 9.002-9.002 9.002-23.608 0-32.611l-301.846-301.796c-4.503-4.501-10.404-6.703-16.306-6.703zM509.619-60.157c-246.578 0-447.243 200.614-447.243 447.242 0 246.58 200.664 447.218 447.243 447.218 246.579 0 447.243-200.638 447.243-447.218-0.001-246.628-200.664-447.242-447.243-447.242zM509.619 788.189c-221.171 0-401.129-179.933-401.129-401.104 0-221.169 179.958-401.128 401.129-401.128 221.17 0 401.128 179.959 401.128 401.128 0 221.171-179.958 401.104-401.128 401.104z"  horiz-adv-x="1024" />

    
    <glyph glyph-name="youhuiquan2" unicode="&#58917;" d="M934.925 483.514c24.201 16.066 24.878 28.351 24.878 49.756 0 29.042 0 149.263 0 149.263 0 41.218-33.416 74.634-74.634 74.634l-746.339 0c-41.218 0-74.634-33.416-74.634-74.634 0 0 0-137.401 0-149.263 0-22.296 1.552-37.168 24.878-49.756 33.988-15.827 74.634-47.806 74.634-99.517 0-67.106-42.183-88.939-73.166-99.403-21.808-13.648-26.346-36.123-26.346-49.861 0-11.847 0-149.268 0-149.268 0-41.223 33.416-74.634 74.634-74.634h746.339c41.218 0 74.634 33.411 74.634 74.634 0 0 0 99.507 0 149.268 0 27.172-6.239 35.784-24.878 49.756-54.339 28.013-74.634 52.95-74.634 99.512 0.001 46.561 19.008 69.732 74.635 99.511zM910.048 243.869v-133.53c0-27.475-22.275-49.756-49.756-49.756l-696.584 0c-27.48 0-49.756 22.28-49.756 49.756l-0 133.53c57.846 20.564 99.512 75.231 99.512 140.127 0 64.902-41.666 119.568-99.512 140.127v133.531c0 27.48 22.275 49.756 49.756 49.756h696.584c27.48 0 49.756-22.275 49.756-49.756v-133.53c-57.841-20.559-99.512-75.226-99.512-140.127 0-64.897 41.671-119.564 99.512-140.128zM648.828 433.758h-93.919l101.95 109.538c4.408 4.817 4.408 12.633 0 17.455l-15.956 17.455c-4.408 4.822-11.548 4.822-15.956 0l-113.065-121.475-113.111 121.515c-4.374 4.782-11.464 4.782-15.833 0l-15.833-17.32c-4.374-4.782-4.374-12.533 0-17.315l102.254-109.851h-94.188c-6.872 0-12.439-5.573-12.439-12.439v-24.883c0-6.872 5.568-12.439 12.439-12.439h111.951v-49.756h-111.951c-6.872 0-12.439-5.568-12.439-12.439v-24.878c0-6.866 5.568-12.439 12.439-12.439h111.951v-87.073c0-6.866 5.568-12.439 12.439-12.439h24.878c6.872 0 12.439 5.573 12.439 12.439v87.073h111.951c6.872 0 12.439 5.573 12.439 12.439v24.878c0 6.872-5.568 12.439-12.439 12.439h-111.951v49.756h111.951c6.872 0 12.439 5.568 12.439 12.439v24.883c0 6.867-5.568 12.439-12.439 12.439z"  horiz-adv-x="1024" />

    
    <glyph glyph-name="home" unicode="&#58909;" d="M996.466 216.007c-7.851 0-15.588 3.243-21.276 9.557l-427.748 481.109c-9.614 10.809-22.187 16.725-35.385 16.725 0 0 0 0 0 0-13.198 0-25.828-5.973-35.385-16.782l-426.894-481.109c-10.411-11.776-28.444-12.743-40.164-2.389-11.776 10.468-12.8 28.388-2.389 40.164l426.837 481.109c20.537 23.154 48.242 35.897 77.938 35.897 0 0 0 0 0.057 0 29.696 0 57.401-12.743 77.881-35.84l427.804-481.109c10.468-11.719 9.387-29.696-2.389-40.164-5.404-4.779-12.174-7.168-18.887-7.168zM853.333 270.222v-284.444c0-31.403-25.486-56.889-56.889-56.889h-113.778v227.556c0 62.805-51.029 113.778-113.778 113.778l-113.778-0c-62.748 0-113.778-50.972-113.778-113.778v-227.556l-113.778 0c-31.346 0-56.889 25.486-56.889 56.889v284.444l-56.889 0v-284.444c0-62.748 51.029-113.778 113.778-113.778h170.667v284.444c0 31.346 25.543 56.889 56.889 56.889h113.778c31.403 0 56.889-25.543 56.889-56.889v-284.444h170.667c62.748 0 113.778 51.029 113.778 113.778v284.444h-56.889z"  horiz-adv-x="1025" />

    
    <glyph glyph-name="edit" unicode="&#58880;" d="M358.166 341.375c-0.533-0.68-1.066-1.392-1.304-2.251l-41.104-150.7c-2.401-8.773 0.059-18.226 6.55-24.893 4.861-4.742 11.261-7.35 18.078-7.35 2.252 0 4.505 0.267 6.727 0.861l149.631 40.808c0.238 0 0.357-0.208 0.534-0.208 1.718 0 3.409 0.622 4.684 1.928l400.114 400.054c11.884 11.898 18.404 28.109 18.404 45.743 0 19.989-8.476 39.963-23.324 54.767l-37.787 37.845c-14.816 14.848-34.822 23.339-54.797 23.339-17.632 0-33.843-6.521-45.758-18.389l-400.055-400.161c-0.413-0.384-0.296-0.948-0.592-1.393M862.925 638.802l-39.742-39.713-64.428 65.452 39.18 39.179c6.193 6.223 18.194 5.318 25.308-1.823l37.813-37.846c3.944-3.942 6.195-9.186 6.195-14.372-0.028-4.254-1.541-8.107-4.327-10.877M429.322 335.092l288.713 288.729 64.459-65.496-288.179-288.164-64.992 64.931zM376.718 218.030l20.863 76.58 55.657-55.658-76.52-20.923zM888.265 480.264c-15.145 0-27.563-12.313-27.62-27.665v-372.983c0-19.559-15.886-35.444-35.476-35.444h-630.948c-19.559 0-35.505 15.884-35.505 35.444l0 608.781c0 19.576 15.945 35.475 35.505 35.475h406.367c15.232 0 27.592 12.372 27.592 27.607 0 15.202-12.361 27.59-27.592 27.59l-410.575 0c-47.684 0-86.493-38.779-86.493-86.493l-0-617.169c0-47.714 38.809-86.478 86.493-86.478h639.334c47.716 0 86.509 38.764 86.509 86.478l0 377.37c-0.062 15.174-12.447 27.487-27.591 27.487z"  horiz-adv-x="1024" />

    
    <glyph glyph-name="miaosha" unicode="&#58895;" d="M515.256 768.448c-228.83 0-415.022-186.194-415.022-415.021 0-228.846 186.194-415.022 415.022-415.022 228.829 0 415.022 186.177 415.022 415.022 0.001 228.828-186.193 415.021-415.022 415.021v0zM515.256-7.281c-198.886 0-360.723 161.804-360.723 360.707 0 198.886 161.836 360.705 360.723 360.705 198.903 0 360.705-161.82 360.705-360.705 0.001-198.903-161.801-360.707-360.705-360.707v0zM137.544 659.212c14.767 77.773 84.047 130.146 154.225 116.865 14.735-2.745 28.947 6.894 31.741 21.629 2.794 14.735-6.893 28.946-21.629 31.741-99.827 18.9-197.367-52.911-217.688-160.105-2.81-14.735 6.877-28.946 21.612-31.756 1.715-0.311 3.414-0.474 5.096-0.474 12.79 0.015 24.177 9.098 26.643 22.101v0zM944.343 669.34c-20.338 107.195-118.074 178.908-217.721 160.106-14.72-2.794-24.421-17.005-21.63-31.741 2.794-14.718 17.054-24.373 31.756-21.629 70.176 13.281 139.457-39.075 154.207-116.866 2.485-13.003 13.871-22.086 26.66-22.086 1.683 0 3.382 0.147 5.096 0.474 14.721 2.795 24.424 17.006 21.631 31.741v0zM722.177 362.655h-189.264v209.505c0 14.997-12.154 27.167-27.149 27.167-15.012 0-27.166-12.17-27.166-27.167v-236.654c0-15.012 12.154-27.149 27.166-27.149h216.413c15.014 0 27.166 12.137 27.166 27.149 0 14.997-12.152 27.149-27.166 27.149v0zM722.177 362.655z"  horiz-adv-x="1024" />

    
    <glyph glyph-name="shouye" unicode="&#58924;" d="M882.531028 455.988008L582.29959 768.191866c-18.623763 19.340062-43.591886 30.084541-70.29959 30.084541s-51.675827-10.64215-70.29959-30.084541L141.5713 455.988008c-31.005496-32.233437-27.01469-60.066753-21.898271-71.732187 3.683821-8.288598 15.963226-30.903168 51.47117-30.903168l44.001199 0 0-240.164685c0-54.541021 39.191766-105.909863 94.858399-105.909863l127.808134 0L437.811932 261.461777c0 27.219346-4.093135 42.466274 23.740182 42.466274l100.998101 0c27.833317 0 23.740182-15.144599 23.740182-42.466274l0-254.183671 127.705806 0c55.666633 0 94.858399 51.368842 94.858399 105.909863L808.854602 353.35265300000003l44.001199 0c35.507944 0 47.787349 22.716898 51.47117 30.903168C909.44339 395.921255 913.434196 423.754572 882.531028 455.988008zM852.855801 402.777256l-37.861497 0-25.275107 0L759.327671 402.777256l0-289.589287c0-27.219346-17.60048-56.382932-45.433796-56.382932l-78.281203 0 0 204.65674c0 54.541021-17.498151 91.890876-73.164785 91.890876l-100.998101 0c-55.666633 0-73.164785-37.349855-73.164785-91.890876l0-204.759069-78.281203 0c-27.833317 0-45.433796 29.163585-45.433796 56.382932l0 289.589287-30.391526 0-25.275107 0-37.861497 0c-0.920955 0-1.637254 3.376836-2.353553 3.479165 1.739582 2.967523 4.707105 10.539822 9.618867 15.656241L478.538623 733.809533c8.902568 9.41421 21.591286 15.04227 33.870691 14.939942 12.279404 0.102328 24.149495-5.62806 33.154392-14.939942l300.12911-311.896872c4.911762-5.116419 7.879285-12.688718 9.516538-15.656241C854.595383 406.154092 853.776756 402.777256 852.855801 402.777256z"  horiz-adv-x="1024" />

    
    <glyph glyph-name="shoucang" unicode="&#59146;" d="M903.711 545.792c-10.824 65.651-47.47 117.512-108.931 154.145-35.295 21.053-75.018 32.187-114.86 32.187-50.883 0-99.141-18.619-135.887-52.429-11.387-10.476-21.796-21.929-31.831-33.075-31.209 38.049-63.099 61.565-100.055 73.884-64.876 21.609-129.477 13.271-188.864-24.404-70.592-44.777-106.097-108.17-105.541-188.434 0.315-47.263 16.054-92.116 48.105-137.098 34.412-48.333 76.751-97.541 133.233-154.867 38.019-38.589 77.402-76.948 115.482-114.071l37.169-36.26c3.313-3.249 6.687-6.444 10.076-9.628l4.201-3.901c7.898-6.584 24.392-17.641 45.993-17.641 17.884 0 34.842 7.332 50.56 21.906 64.632 60.869 133.501 126.994 199.050 198.044 33.94 36.8 72.801 80.069 104.448 128.092 34.276 52.042 46.956 107.075 37.652 163.551M832.998 404.014c-29.998-45.535-66.099-85.737-100.48-123.028-64.732-70.147-132.974-135.693-196.974-195.973-8.054-7.447-15.964-11.236-23.542-11.236-9.142 0-16.86 5.307-19.727 7.629l-3.3 3.118c-3.223 3.041-6.449 6.083-9.592 9.147l-37.194 36.301c-37.947 36.964-77.174 75.197-114.908 113.503-55.736 56.553-95.572 102.825-129.201 150.049-27.167 38.139-40.479 75.558-40.755 114.419-0.451 66.616 28.052 117.23 87.163 154.739 31.424 19.932 64.174 30.047 97.308 30.047 18.924 0 38.38-3.3 57.843-9.779 30.653-10.217 57.61-30.886 85.158-65.405 1.864-2.202 11.889-13.22 27.471-13.22 6.845 0 17.001 2.191 26.55 12.692l1.559 1.728c10.284 11.405 19.96 22.162 30.459 31.826 29.839 27.459 67.571 41.969 109.084 41.969 32.701 0 65.408-9.201 94.577-26.58 51.694-30.835 81.188-72.248 90.145-126.61 7.731-46.991-2.604-91.254-31.644-135.334M383.521 607.293c-14.651 6.776-30.349 10.191-46.63 10.191-61.501 0-111.547-50.045-111.547-111.534 0-22.060 6.431-43.372 18.578-61.668 3.814-5.722 10.097-8.827 16.494-8.827 3.763 0 7.575 1.070 10.939 3.313 9.103 6.042 11.584 18.335 5.53 27.433-7.828 11.779-11.958 25.526-11.958 39.749 0 39.685 32.276 71.951 71.964 71.951 10.514 0 20.608-2.189 30.029-6.533 9.897-4.613 21.691-0.284 26.26 9.661 4.593 9.923 0.264 21.688-9.659 26.263z"  horiz-adv-x="1024" />

    
    <glyph glyph-name="daifahuo" unicode="&#58890;" d="M792.74 548.52l34.56 0c2.52 0 9.18-3.18 10.8-5.28l151.8-190.68c0.96-1.14 3.06-7.08 3.06-8.64l0-232.92c0-11.88-4.86-22.74-12.72-30.66-7.92-7.86-18.72-12.72-30.72-12.72l-52.62 0c-6.48-53.7-50.76-95.1-104.16-98.76l0 27.84c43.14 3.9 77.28 40.56 77.28 84.66 0 44.22-34.08 80.64-77.28 84.54l0 28.02c53.34-3.72 97.44-44.94 104.1-98.4l52.68 0c4.38 0 8.28 1.68 11.1 4.5 2.76 2.88 4.56 6.72 4.56 11.1l0 168.72-172.44 0 0 27.78 172.44 0 0 31.62-77.1 96.96-95.34 0 0 27.72 73.2 0-45.36 56.88-27.84 0 0 27.72zM344.48 694.14c17.22-9.6 32.94-21.54 46.74-35.34l0 0c6.78-6.78 13.02-13.92 18.84-21.48l154.44 0c15.3 0 29.34-6.3 39.36-16.32l0-0.06c10.2-10.14 16.38-24 16.38-39.36l0-33 172.5 0 0-27.78-172.5 0 0-425.28 53.04 0c6.96 55.98 55.14 98.64 111.84 98.64 2.52 0 4.98-0.06 7.62-0.18l0-27.96c-2.58 0.3-5.1 0.48-7.62 0.48-46.62 0-84.96-38.34-84.96-84.96 0-46.74 38.22-84.96 84.96-84.96 2.52 0 5.04 0.06 7.62 0.36l0-27.9c-2.64-0.12-5.1-0.24-7.62-0.24-56.7 0-105.06 42.96-111.96 98.94l-281.04 0c-4.02-32.76-22.02-60.96-47.64-78.78l0 37.02c12.84 14.88 20.7 34.26 20.7 55.5 0 21.12-7.8 40.5-20.7 55.44l0 36.96c25.5-17.76 43.5-45.78 47.52-78.36l200.4 0 0 486c0 7.74-3.18 14.7-8.28 19.8l0-0.06c-4.98 5.16-12 8.22-19.62 8.22l-136.5 0c15.9-29.64 25.02-63.54 25.02-99.48 0-57.96-23.64-110.64-61.74-148.74-13.8-13.86-29.58-25.8-46.74-35.4l0 32.64c9.72 6.6 18.84 14.04 27.12 22.44 33.06 33.06 53.58 78.78 53.58 129.06 0 50.34-20.46 96-53.64 129.12l0 0.12c-8.28 8.28-17.4 15.78-27.12 22.44l0 32.46zM792.74 463.86l-32.64 0c-24.54 0-44.7-20.16-44.7-44.7l0-94.98c0-24.24 20.1-44.34 44.22-44.34l33.12 0 0 27.78-33.12 0c-8.88 0-16.44 7.44-16.44 16.5l0 95.04c0 9.24 7.8 16.98 16.98 16.98l32.58 0 0 27.72zM242.54 720.54c36.9 0 71.7-9.6 101.94-26.46l0-32.46c-29.16 19.62-64.2 31.14-101.94 31.14-11.4 0-22.62-1.02-33.48-3.06l0 28.2c10.92 1.74 22.08 2.64 33.48 2.64l0 0 0 0zM344.48-11.04c-18.36-12.78-40.5-20.28-64.26-20.28-26.82 0-51.6 9.48-71.1 25.44l0 41.04c15.18-23.28 41.4-38.7 71.1-38.7 25.62 0 48.66 11.4 64.26 29.52l0-37.02zM344.48 358.5l0-32.52c-30.24-16.86-64.98-26.4-101.94-26.4-11.4 0-22.56 0.9-33.48 2.64l0 28.2c10.8-2.04 22.02-3.12 33.48-3.12 37.68 0 72.78 11.58 101.94 31.2l0 0 0 0zM344.48 173.88l0-37.02c-15.6 18.12-38.64 29.58-64.26 29.58-29.64 0-55.92-15.54-71.1-38.82l0 41.04c19.5 15.96 44.34 25.44 71.1 25.44 23.76 0 45.9-7.5 64.26-20.22l0 0 0 0zM209.12 463.86l0 36.3 19.5 16.38 0 119.94c0 19.86 27.78 19.86 27.78 0l0-126.42c0-2.46-3-9-4.92-10.68l-42.36-35.52zM209.12-5.88c-21.96 17.94-37.08 43.86-40.74 73.62l-43.86 0c-30.66 0-55.74 25.2-55.74 55.86l0 267.9c-23.16 33.78-36.78 74.64-36.78 118.56 0 57.96 23.64 110.64 61.74 148.8 30.66 30.54 70.74 51.9 115.38 59.1l0-28.26c-37.02-6.84-70.14-24.96-95.76-50.52-33.06-33.12-53.58-78.84-53.58-129.12s20.46-96 53.64-129.06l-0.12 0c25.62-25.62 58.74-43.68 95.76-50.52l0-28.14c-43.32 6.84-82.26 27.12-112.56 56.4l0-235.2c0-15.42 12.54-28.02 27.96-28.02l43.92 0c3.72 29.52 18.84 55.38 40.68 73.2l0-41.16c-8.76-13.26-13.8-29.1-13.8-46.14 0-17.1 5.04-33.06 13.8-46.32l0.06-40.98zM209.12 500.16l-21.96-18.42-19.62-16.5c-15.12-12.72 2.88-33.96 17.94-21.24l23.64 19.86 0 36.3zM209.12 500.16z"  horiz-adv-x="1026" />

    
    <glyph glyph-name="dingdan" unicode="&#58986;" d="M774.31 667.827h-161.975c-19.869 0-35.752-17.677-35.752-39.527 0-21.897 15.91-39.629 35.752-39.629h162.978c18.867 0 34.776 17.732 34.776 39.629 0.002 21.851-15.884 39.527-35.778 39.527v0zM950.192 641.443h-80.66c0.819-4.328 1.293-8.708 1.293-13.141 0.027-33.272-24.113-66.016-52.822-66.016h-247.803c-30.213 0-54.383 32.743-54.383 66.016 0.028 4.433 0.502 8.812 1.321 13.141h-81.636c-65.621 0-81.742-37.202-81.742-90.868v-531.605c0-57.652 23.087-89.918 86.698-89.918h504.77c63.616 0 94.536 25.299 94.536 89.889v531.633c0.005 53.665-28.943 90.867-89.574 90.867v0zM867.319 116.567h-350.763c-12.93 0-25.833 15.858-25.833 28.811 0 12.903 10.925 23.96 23.851 23.96h349.761c12.925 0 23.851-10.053 24.83-23.96 0-12.955-8.921-28.811-21.847-28.811v0zM868.744 257.323h-350.763c-12.93 0-21.162 13.904-21.162 26.862 0 12.953 10.925 25.91 23.851 25.91h349.761c12.93 0 23.851-12.003 24.83-25.91 0-12.953-13.614-26.862-26.516-26.862v0zM868.744 401.89h-350.763c-12.93 0-21.162 13.904-21.162 26.858s10.925 25.912 23.851 25.912h349.761c12.93 0 23.851-12.008 24.83-25.912 0-12.953-13.614-26.858-26.516-26.858v0zM868.744 401.89z"  horiz-adv-x="1449" />

    
    <glyph glyph-name="shandian" unicode="&#58886;" d="M774.063 478.606h205.786l-491.601-590.682 163.867 415.929h-182.919l182.919 491.057h354.411zM2137.938 985.451v0zM2134.763 985.451c0-1.754 1.421-3.175 3.175-3.175s3.175 1.421 3.175 3.175c0 1.754-1.421 3.175-3.175 3.175-1.754 0-3.175-1.421-3.175-3.175zM2134.125 985.451c0-2.105 1.706-3.812 3.812-3.812s3.812 1.706 3.812 3.812c0 2.105-1.706 3.812-3.812 3.812-2.105 0-3.812-1.706-3.812-3.812zM2137.938 985.451v0 0 0 0 0 0 0 0 0 0 0 0 0 0 0 0 0 0 0 0 0 0 0 0 0 0 0 0 0 0 0 0 0 0 0 0l1.147 9.354zM2130.318 985.451c0 0 0 0 0 0 0-4.21 3.412-7.621 7.621-7.621 4.21 0 7.621 3.412 7.621 7.621 0 0 0 0 0 0 0 0 0 0 0 0 0 4.21-3.412 7.621-7.621 7.621-4.21 0-7.621-3.412-7.621-7.621s0 0 0 0zM2134.125 985.451c0-2.105 1.706-3.812 3.812-3.812s3.812 1.706 3.812 3.812c0 2.105-1.706 3.812-3.812 3.812-2.105 0-3.812-1.706-3.812-3.812zM2134.763 985.451c0-1.754 1.421-3.175 3.175-3.175s3.175 1.421 3.175 3.175c0 1.754-1.421 3.175-3.175 3.175-1.754 0-3.175-1.421-3.175-3.175zM2137.938 985.451v0 0 0 0 0 0 0 0 0 0 0 0 0 0 0 0 0 0 0 0 0 0 0 0 0 0 0 0 0 0 0 0 0 0 0 0l1.147 9.354z"  horiz-adv-x="1345" />

    
    <glyph glyph-name="iconfonttaobaozhongchoudisiqiqiche" unicode="&#58893;" d="M933.269 320.971c14.36 0 26.001 11.641 26.001 26.001v191.732c0 67.572-54.974 122.546-122.546 122.546h-345.026c-67.572 0-122.546-54.974-122.546-122.546v-10.852h-122.095c-32.384 0-62.537-14.521-82.728-39.839l-92.546-116.051c-20.381-25.557-31.605-57.634-31.605-90.321v-250.076h70.228c2.961-62.837 55.007-113.050 118.563-113.050 63.558 0 115.603 50.212 118.564 113.050h255.768c2.961-62.837 55.007-113.050 118.563-113.050 63.578 0 115.636 50.244 118.566 113.11 65.863 1.968 118.838 56.154 118.838 122.485v36.854c0 14.36-11.641 26.001-26.001 26.001s-26.001-11.641-26.001-26.001v-36.854c0-38.898-31.646-70.544-70.544-70.544h-5.582c-18.089 42.488-60.259 72.352-109.276 72.352s-91.186-29.864-109.276-72.352h-191.436v455.138c0 38.898 31.646 70.544 70.544 70.544h345.026c38.898 0 70.544-31.646 70.544-70.544v-191.732c-0.001-14.36 11.64-26.001 26.001-26.001zM228.97-29.483c-36.778 0-66.699 29.921-66.699 66.7s29.921 66.699 66.699 66.699c36.778 0 66.699-29.92 66.699-66.699s-29.92-66.7-66.699-66.7zM338.247 83.567c-18.090 42.488-60.259 72.352-109.276 72.352-49.015 0-91.186-29.864-109.276-72.352h-27.515l0 198.073c0 20.954 7.195 41.516 20.259 57.899l92.546 116.050c10.268 12.875 25.602 20.259 42.070 20.259l122.096 0v-392.281h-30.905zM721.866 103.915c36.778 0 66.699-29.92 66.699-66.699s-29.92-66.7-66.699-66.7-66.699 29.921-66.699 66.7 29.92 66.699 66.699 66.699zM303.583 462.282c-14.36 0-26.001-11.641-26.001-26.001v-100.614h-100.615c-14.36 0-26.001-11.641-26.001-26.001s11.641-26.001 26.001-26.001h152.617l-0 152.616c0 14.36-11.641 26.001-26.001 26.001z"  horiz-adv-x="1024" />

    
    <glyph glyph-name="shijian" unicode="&#58964;" d="M512.38374-141.859523c-246.952438 0-447.13876 200.199625-447.13876 447.13876 0 246.944252 200.186322 447.13876 447.13876 447.13876 246.944252 0 447.13876-200.194508 447.13876-447.13876C959.5225 58.339078 759.327992-141.859523 512.38374-141.859523zM512.38374 701.746944c-218.961944 0-396.467707-177.50167-396.467707-396.467707 0-218.961944 177.505763-396.467707 396.467707-396.467707s396.467707 177.505763 396.467707 396.467707S731.345684 701.746944 512.38374 701.746944zM741.42525 193.166833c-6.158257-13.192464-21.880333-18.860557-35.072797-12.67774L496.235968 250.732923c-10.04989 4.692882-15.645328 14.900362-15.07944 25.333992-0.127913 1.056052-0.61296 1.933025-0.61296 3.019777L480.543567 569.342378c0 14.585183 11.799744 26.390044 26.38595 26.390044 14.585183 0 26.38595-11.80486 26.38595-26.390044l0-275.727809 195.408505-65.35038C741.940996 222.081373 747.609089 206.384879 741.42525 193.166833z"  horiz-adv-x="1024" />

    
    <glyph glyph-name="my-jifen" unicode="&#58894;" d="M509.092 394.347c241.776 0 424.087 78.085 424.087 181.64 0 103.543-182.311 181.629-424.087 181.629s-424.098-78.086-424.098-181.63c0-103.554 182.322-181.639 424.098-181.639zM509.092 711.779c222.909 0 378.252-71.562 378.252-135.794s-155.342-135.804-378.252-135.804c-222.92 0-378.263 71.573-378.263 135.804s155.343 135.794 378.263 135.794zM509.084 201.938c241.115 0 422.938 77.598 422.938 180.483 0 27.17-13.128 52.454-36.241 75.131-0.148 0.153-0.266 0.32-0.419 0.469-0.171 0.167-0.286 0.346-0.456 0.511l-0.115-0.126c-3.718 3.408-8.576 5.609-14.017 5.609-11.543 0-20.899-9.356-20.899-20.899 0-6.11 2.722-11.481 6.901-15.303l-0.083-0.091c13.949-14.024 21.81-31.155 21.81-45.301 0-64.786-155.814-136.966-379.419-136.966-223.595 0-379.41 72.181-379.41 136.966 0 16.14 4.537 29.952 22.323 45.67 0.214 0.205 0.43 0.382 0.635 0.595 0.137 0.119 0.24 0.233 0.379 0.354l-0.085 0.081c3.417 3.72 5.623 8.589 5.623 14.038 0 11.543-9.356 20.899-20.899 20.899-5.77 0-10.993-2.34-14.773-6.119l-0.123 0.119c-23.408-22.797-36.594-48.278-36.594-75.636 0-102.883 181.821-180.483 422.925-180.483zM895.577 266.47c-0.169 0.165-0.282 0.343-0.453 0.508l-0.115-0.125c-3.718 3.408-8.577 5.609-14.018 5.609-11.541 0-20.898-9.356-20.898-20.899 0-6.11 2.721-11.483 6.901-15.303l-0.084-0.091c13.95-14.024 21.811-31.155 21.811-45.301 0-64.788-155.814-136.966-379.419-136.966-223.595 0-379.41 72.18-379.41 136.966 0 16.14 4.537 29.952 22.321 45.67 0.214 0.203 0.43 0.382 0.635 0.595 0.137 0.119 0.24 0.233 0.379 0.354l-0.085 0.081c3.417 3.72 5.623 8.589 5.623 14.038 0 11.543-9.356 20.899-20.898 20.899-5.77 0-10.993-2.34-14.773-6.119l-0.123 0.119c-23.41-22.797-36.594-48.279-36.594-75.636 0-102.884 181.821-180.483 422.926-180.483 241.114 0 422.936 77.598 422.936 180.483 0 27.167-13.126 52.453-36.235 75.127-0.151 0.158-0.272 0.323-0.426 0.475z"  horiz-adv-x="1024" />

    
    <glyph glyph-name="balance" unicode="&#58935;" d="M511.998 893.379c-281.323 0-509.376-228.054-509.376-509.376 0-281.327 228.054-509.382 509.376-509.382 281.327 0 509.382 228.054 509.382 509.382-0.001 281.322-228.055 509.376-509.382 509.376v0zM680.153 320.29c22.603 0 41.109-18.506 41.109-41.11s-18.505-41.11-41.109-41.11h-127.045v-105.964c0-22.603-18.5-41.11-41.109-41.11-22.603 0-41.106 18.506-41.106 41.11v105.964h-126.954c-22.603 0-41.106 18.506-41.106 41.11s18.501 41.11 41.106 41.11h127.049v60.756h-127.049c-22.603 0-41.106 18.501-41.106 41.106 0 22.609 18.501 41.109 41.106 41.109h91.279l-110.354 128.669c-14.685 17.165-12.684 43.206 4.485 57.892v0c17.169 14.69 43.206 12.688 57.895-4.481l124.848-145.551 124.852 145.551c14.69 17.169 40.727 19.17 57.897 4.481v0c17.169-14.687 19.17-40.727 4.479-57.892l-110.352-128.669h91.279c22.603 0 41.109-18.5 41.109-41.109 0-22.603-18.505-41.106-41.109-41.106h-127.141v-60.756h127.045zM680.153 320.29z"  horiz-adv-x="1024" />

    
    <glyph glyph-name="hot" unicode="&#58938;" d="M775.093 637.647c-116.478-35.083-137.804-134.53-130.289-197.693-83.093 103.149-79.682 221.809-79.682 392.762-266.492-106.119-204.517-412.086-212.486-505.001-67.031 57.942-79.696 196.381-79.696 196.381-70.76-38.453-106.243-141.147-106.243-224.447 0-201.437 154.599-364.724 345.303-364.724s345.303 163.287 345.303 364.724c0 119.71-83.218 174.931-82.21 337.997z"  horiz-adv-x="1024" />

    
    <glyph glyph-name="jianhao" unicode="&#58902;" d="M918.099065 381.09995c0-22.335704-18.274202-40.609906-40.609906-40.609906L146.509818 340.490044c-22.335704 0-40.609906 18.274202-40.609906 40.609906l0 5.801123c0 22.335704 18.274202 40.609906 40.609906 40.609906L877.489158 427.51098c22.335704 0 40.609906-18.274202 40.609906-40.609906L918.099065 381.09995z"  horiz-adv-x="1024" />

    
    <glyph glyph-name="service" unicode="&#59013;" d="M781.443 381.762c0 73.113-29.838 138.777-77.609 186.546-46.25 47.751-111.914 77.605-183.547 77.605-73.112 0-137.299-29.855-185.047-77.605-47.772-47.769-76.108-113.432-76.108-186.546 0-71.632 28.336-137.297 76.108-185.064 47.747-49.249 111.934-77.588 185.047-77.588 71.633 0 137.297 28.339 183.547 77.588 47.77 47.767 77.609 113.431 77.609 185.064M520.286 145.97c-64.166 0-123.878 26.864-165.657 70.14-41.777 41.776-68.659 101.468-68.659 165.653 0 65.665 26.881 125.356 68.659 167.135 41.779 43.276 101.492 70.135 165.657 70.135 64.163 0 122.378-26.86 164.157-70.135 41.779-41.779 68.66-101.47 68.66-167.135 0-64.185-26.881-123.876-68.66-165.653-41.779-43.278-99.992-70.14-164.157-70.14M574.007 253.412c-17.891-7.469-38.783-10.443-58.194-10.443-19.41 1.497-38.804 5.972-56.717 14.918-44.752 22.385-77.584 68.66-77.584 135.821h-28.377c0-79.107 40.302-134.323 92.545-161.183 22.385-10.448 46.25-16.415 70.134-17.913 22.39 0 46.253 4.471 68.638 13.439 52.243 23.865 92.545 76.107 98.496 164.16l-28.339 1.497c-4.493-76.13-38.823-120.886-80.602-140.296M876.657 465.079c-16.622 83.027-61.209 154.217-123.554 203.201-65.665 53.741-147.741 83.578-232.816 85.076-43.279 0-83.556-5.969-120.883-17.914-73.109-23.865-132.822-71.632-174.6-132.821-28.34-40.281-49.227-88.053-59.693-137.302-137.3-11.918-135.803-189.516 13.438-211.906l26.86 8.946c-14.935 41.801-20.887 85.077-20.887 126.854 1.497 73.135 23.882 141.772 62.666 196.993 38.804 56.715 94.020 99.99 161.183 122.378 34.307 11.942 71.636 16.417 111.916 16.417 79.103-1.498 155.21-29.838 214.923-77.605 58.174-46.253 99.972-111.918 114.891-189.522 0 0 64.508-276.213-220.067-387.886-6.073 7.226-14.856 11.801-24.672 11.801-19.415 0-34.331-14.918-34.331-34.307 0-17.914 14.916-32.833 34.331-32.833 16.251 0 29.896 12.328 32.324 27.996 132.762 51.553 196.18 136.102 224.883 216.075 125.901 31.313 128.127 181.564 14.088 206.362z"  horiz-adv-x="1024" />

    
    <glyph glyph-name="xiantiaoyueqiandai" unicode="&#58899;" d="M612.333037 584.286815l86.091852 117.892741c3.887407 5.328593 4.266667 12.193185 0.967111 17.863111C696.092444 725.69363 689.664 729.220741 682.666667 729.220741l-107.254519 0-49.967407 64.587852c-3.602963 4.626963-9.386667 7.831704-15.606519 7.319704-6.200889-0.037926-11.984593-2.844444-15.492741-7.547259l-48.260741-64.379259L341.333333 729.201778c-7.073185 0-13.577481-3.621926-16.839111-9.386667-3.26163-5.764741-2.74963-12.705185 1.327407-18.014815l87.419259-113.701926C262.181926 562.422519 132.740741 418.076444 132.740741 277.997037l0-31.573333C132.740741 92.008296 270.696296-33.185185 440.888889-33.185185l142.222222 0C753.303704-33.185185 891.259259 92.008296 891.259259 246.423704L891.259259 277.997037C891.259259 411.894519 758.556444 549.906963 612.333037 584.286815zM377.893926 694.46163l78.14637 0c6.238815 0 12.09837 2.806519 15.625481 7.528296l38.532741 51.38963 39.936-51.617185c3.565037-4.589037 9.310815-7.319704 15.454815-7.319704l81.540741 0-75.548444-103.461926c-9.007407 0.872296-18.014815 1.554963-27.003259 1.554963l-84.442074 0c-1.251556 0-2.484148-0.18963-3.754667-0.208593L377.893926 694.46163zM853.333333 246.423704c0-135.016296-121.230222-244.849778-270.222222-244.849778l-142.222222 0C291.896889 1.573926 170.666667 111.407407 170.666667 246.423704L170.666667 277.997037c0 138.581333 146.090667 279.798519 289.488593 279.798519l84.442074 0C694.632296 557.795556 853.333333 413.980444 853.333333 277.997037L853.333333 246.423704zM659.076741 295.936c10.410667 0 18.849185 7.623111 18.849185 17.047704 0 9.40563-8.438519 17.047704-18.849185 17.047704L581.214815 330.031407l56.850963 92.330667c5.063111 8.229926 1.782519 18.602667-7.300741 23.172741-9.083259 4.589037-20.574815 1.630815-25.637926-6.599111l-67.053037-108.923259-23.969185 0-67.053037 108.923259c-5.063111 8.229926-16.57363 11.188148-25.637926 6.599111-9.083259-4.589037-12.363852-14.961778-7.300741-23.172741l56.850963-92.330667-82.356148 0c-10.410667 0-18.849185-7.642074-18.849185-17.047704 0-9.40563 8.438519-17.047704 18.849185-17.047704l116.375704 0 0-66.977185-116.375704 0c-10.410667 0-18.849185-7.642074-18.849185-17.047704 0-9.40563 8.438519-17.047704 18.849185-17.047704l116.375704 0 0-79.189333c0-9.40563 8.438519-17.047704 18.849185-17.047704s18.849185 7.642074 18.849185 17.047704l0 79.189333 116.394667 0c10.410667 0 18.849185 7.623111 18.849185 17.047704 0 9.40563-8.438519 17.047704-18.849185 17.047704l-116.394667 0 0 66.977185L659.076741 295.936z"  horiz-adv-x="1024" />

    
    <glyph glyph-name="tobuy" unicode="&#58987;" d="M907.636364 756.363636l-100.072727 0c-12.8 0-23.272727-10.472727-23.272727-23.272727 0-12.8 10.472727-23.272727 23.272727-23.272727l100.072727 0c38.632727 0 69.818182-31.185455 69.818182-69.818182l0-372.363636c0-38.632727-31.185455-69.818182-69.818182-69.818182L279.272727 197.81818199999998c-38.632727 0-69.818182 31.185455-69.818182 69.818182L209.454545 802.909091C209.454545 854.341818 167.796364 896 116.363636 896L23.272727 896C10.472727 896 0 885.527273 0 872.727273c0-12.8 10.472727-23.272727 23.272727-23.272727l93.090909 0c25.6 0 46.545455-20.945455 46.545455-46.545455l0-535.272727c0-64.232727 52.130909-116.363636 116.363636-116.363636l628.363636 0c64.232727 0 116.363636 52.130909 116.363636 116.363636L1024 640C1024 704.2327270000001 971.869091 756.363636 907.636364 756.363636zM598.341818 321.163636l131.258182 131.258182c9.076364 9.076364 9.309091 23.970909 0.232727 33.047273-9.076364 9.076364-23.970909 9.076364-33.047273-0.232727L565.527273 353.97818199999995c-9.076364-9.076364-9.309091-23.970909-0.232727-33.047273C574.370909 311.85454500000003 589.265455 311.85454500000003 598.341818 321.163636zM434.036364 452.421818l131.258182-131.258182c9.076364-9.076364 23.970909-9.309091 33.047273-0.232727 9.076364 9.076364 9.076364 23.970909-0.232727 33.047273l-131.258182 131.258182c-9.076364 9.076364-23.970909 9.309091-33.047273 0.232727C424.727273 476.392727 424.727273 461.498182 434.036364 452.421818zM558.545455 872.727273L558.545455 337.45454500000005c0-12.8 10.472727-23.272727 23.272727-23.272727 12.8 0 23.272727 10.472727 23.272727 23.272727L605.090909 872.727273c0 12.8-10.472727 23.272727-23.272727 23.272727C569.018182 896 558.545455 885.527273 558.545455 872.727273zM930.909091 58.18181800000002L256 58.18181800000002c-51.432727 0-93.090909-41.658182-93.090909-93.090909s41.658182-93.090909 93.090909-93.090909 93.090909 41.658182 93.090909 93.090909c0 16.989091-4.654545 32.814545-12.567273 46.545455l513.861818 0c-7.912727-13.730909-12.567273-29.556364-12.567273-46.545455 0-51.432727 41.658182-93.090909 93.090909-93.090909s93.090909 41.658182 93.090909 93.090909S982.341818 58.18181800000002 930.909091 58.18181800000002zM302.545455-34.90909099999999c0-25.6-20.945455-46.545455-46.545455-46.545455s-46.545455 20.945455-46.545455 46.545455 20.945455 46.545455 46.545455 46.545455C281.6 11.636363999999958 302.545455-9.309090999999967 302.545455-34.90909099999999zM930.909091-81.45454500000005c-25.6 0-46.545455 20.945455-46.545455 46.545455s20.945455 46.545455 46.545455 46.545455c25.6 0 46.545455-20.945455 46.545455-46.545455S956.509091-81.45454500000005 930.909091-81.45454500000005z"  horiz-adv-x="1024" />

    
    <glyph glyph-name="dianhua" unicode="&#58944;" d="M959.641569 487.373576c-73.287111-104.494545-155.130828-5.368242-173.586101 24.565657-18.443636 29.939071-136.736323 145.232162-272.766707 145.232162-161.237333 0-255.742707-119.232646-274.293657-149.611313-18.549657-30.383838-100.853657-130.984081-174.550626-24.939313C37.030498 516.040404-13.287724 806.080646 513.288761 806.787879 1036.939347 806.09099 986.904276 520.29802 959.641569 487.373576L959.641569 487.373576zM513.288761 756.918303c-478.904889 0-419.63701-223.756929-398.969535-249.358222 35.529697-44.015192 67.090101 6.712889 99.741737 49.868283 23.808 31.475071 131.92404 150.712889 299.227798 150.712889l0 0c140.863354 0 275.757253-120.075636 297.570263-147.055192 28.934465-35.793455 72.494545-92.268606 99.187071-49.141657C929.302983 538.039596 987.849407 756.918303 513.288761 756.918303L513.288761 756.918303zM513.288761 607.303111c216.696242 0 374.040566-333.773576 374.040566-498.717737 0-147.409455-48.444768-149.616485-374.040566-149.616485-325.576404 0-374.035394 2.217374-374.035394 149.616485C139.253367 269.464566 296.243428 607.303111 513.288761 607.303111L513.288761 607.303111zM513.288761 8.843636c282.18699 0 324.165818 1.847596 324.165818 125.676606 0 112.347798-136.362667 422.908121-324.165818 422.908121-188.10699 0-324.161939-312.610909-324.161939-422.908121C189.12165 10.701576 231.121165 8.843636 513.288761 8.843636L513.288761 8.843636zM513.288761 457.686626c68.858828 0 124.681051-55.823515 124.681051-124.677172 0-68.858828-55.822222-124.681051-124.681051-124.681051s-124.677172 55.822222-124.677172 124.681051C388.611589 401.863111 444.429933 457.686626 513.288761 457.686626L513.288761 457.686626zM513.288761 258.201859c41.318141 0 74.807596 33.489455 74.807596 74.807596 0 41.31297-33.489455 74.803717-74.807596 74.803717-41.31297 0-74.808889-33.490747-74.808889-74.803717C438.479872 291.691313 471.975791 258.201859 513.288761 258.201859L513.288761 258.201859zM513.288761 258.201859"  horiz-adv-x="1024" />

    
    <glyph glyph-name="daifukuan" unicode="&#58905;" d="M779.288091 1.422651 176.933223 1.422651c-62.280462 0-112.944352 50.667983-112.944352 112.943328L63.988872 653.63402c0 62.279439 50.662867 112.944352 112.944352 112.944352l602.354867 0c62.276369 0 112.944352-50.66389 112.944352-112.944352l0-88.519056c0-10.68127-8.65717-19.331277-19.333324-19.331277-10.677177 0-19.333324 8.651031-19.333324 19.331277l0 88.519056c0 40.957831-33.320896 74.277704-74.278727 74.277704L176.933223 727.911724c-40.957831 0-74.277704-33.320896-74.277704-74.277704l0-539.26804c0-40.955784 33.320896-74.27668 74.277704-74.27668l602.354867 0c40.957831 0 74.278727 33.320896 74.278727 74.27668L853.566818 219.168907c0 10.676154 8.656147 19.332301 19.333324 19.332301 10.676154 0 19.333324-8.656147 19.333324-19.332301l0-104.802928C892.232442 52.089611 841.564459 1.422651 779.288091 1.422651L779.288091 1.422651zM779.288091 1.422651M877.982904 263.93753 607.331717 263.93753c-44.88528 0-81.400938 36.515658-81.400938 81.399915l0 91.570555c0 44.884256 36.515658 81.399915 81.400938 81.399915l270.651186 0c44.884256 0 81.399915-36.515658 81.399915-81.399915l0-91.570555C959.382818 300.452165 922.868183 263.93753 877.982904 263.93753L877.982904 263.93753zM607.331717 479.642291c-23.561625 0-42.73429-19.167548-42.73429-42.73429l0-91.570555c0-23.567765 19.171642-42.735313 42.73429-42.735313l270.651186 0c23.564695 0 42.739407 19.166525 42.739407 42.735313l0 91.570555c0 23.566742-19.173688 42.73429-42.739407 42.73429L607.331717 479.642291 607.331717 479.642291zM607.331717 479.642291M657.188218 354.492966c-20.195971 0-36.630269 16.429181-36.630269 36.631292 0 20.196994 16.434298 36.626175 36.630269 36.626175 20.198018 0 36.632315-16.429181 36.632315-36.626175C693.820534 370.922147 677.386236 354.492966 657.188218 354.492966L657.188218 354.492966zM657.188218 393.157567c-1.121544 0-2.033309-0.911766-2.033309-2.033309 0-1.12666 0.912789-2.039449 2.033309-2.039449 1.122567 0 2.034333 0.913812 2.034333 2.039449C659.222551 392.245801 658.309762 393.157567 657.188218 393.157567L657.188218 393.157567zM657.188218 393.157567"  horiz-adv-x="1024" />

    
    <glyph glyph-name="jieshao1" unicode="&#58918;" d="M643.602805 321.457572 282.53433 321.457572c-6.575766 0-11.875468-8.922207-11.875468-19.874653 0-10.960633 5.300726-19.813255 11.875468-19.813255l361.068476 0c6.559393 0 11.864212 8.852622 11.864212 19.813255C655.467017 312.544575 650.162198 321.457572 643.602805 321.457572L643.602805 321.457572 643.602805 321.457572zM643.602805 321.457572M643.602805 413.083385 282.53433 413.083385c-6.575766 0-11.875468-8.887414-11.875468-19.882839 0-10.956539 5.300726-19.813255 11.875468-19.813255l361.068476 0c6.559393 0 11.864212 8.857738 11.864212 19.813255C655.467017 404.195971 650.162198 413.083385 643.602805 413.083385L643.602805 413.083385 643.602805 413.083385zM643.602805 413.083385M643.602805 504.645754 282.53433 504.645754c-6.575766 0-11.875468-8.861832-11.875468-19.822464 0-10.956539 5.300726-19.84907 11.875468-19.84907l361.068476 0c6.559393 0 11.864212 8.892531 11.864212 19.84907C655.467017 495.783923 650.162198 504.645754 643.602805 504.645754L643.602805 504.645754 643.602805 504.645754zM643.602805 504.645754M900.157949 717.99998c0 62.308091-50.613748 113.017006-112.828718 113.017006l-553.127699 0c-0.257873 0-0.483001-0.038886-0.763386-0.055259-0.26299 0.016373-0.508583 0.055259-0.771573 0.055259-60.569494 0-109.856014-50.708915-109.856014-113.017006l0-660.708903c0-8.327666 3.264347-16.260335 9.085936-22.00313l89.751117-89.056292c11.511171-11.397584 29.718859-11.397584 41.225937 0l91.565439 90.851171 94.997608-94.243431c11.512195-11.44875 29.736255-11.44875 41.247426 0l95.003747 94.243431 95.011934-94.243431c5.754051-5.710049 13.19144-8.580422 20.59813-8.580422 7.429203 0 14.878872 2.870374 20.632923 8.580422l86.0007 85.307921c5.805216 5.777587 9.082866 13.706163 9.082866 21.998013L817.01432 609.039359C864.859002 622.176564 900.157949 666.001699 900.157949 717.99998L900.157949 717.99998 900.157949 717.99998zM706.857455-1.93277l-97.302093 96.538707c-11.765975 11.7056-30.40959 11.7056-42.201148 0l-97.27958-96.538707-97.292883 96.538707c-11.787464 11.7056-30.43108 11.7056-42.222637 0l-93.765547-93.010347-61.505819 61.001329L175.287747 725.912184c0 29.331026 23.184025 53.179177 51.681056 53.179177 0.254803 0 0.483001 0.076748 0.717338 0.076748 0.303922 0 0.576121-0.076748 0.856507-0.076748l0.106424 0c30.130228-0.067538 54.615898-23.904433 54.615898-53.179177 0-29.322839-24.540929-53.193503-54.722322-53.193503-16.803711 0-30.393217-13.980409-30.393217-31.253818 0-17.294898 13.589506-31.314193 30.393217-31.314193l536.000624 0 0-554.828434L706.857455-1.93277 706.857455-1.93277 706.857455-1.93277zM774.841825 660.035824l-473.476615 3.027963c28.833699 14.133905 28.854165 42.540885 28.833699 51.081399-0.072655 31.884175-4.910846 45.984311-13.038968 61.698201l474.025107 0.797156c29.740348 0 60.764945-31.18628 60.764945-60.084447 0-28.891004-31.399127-55.04364-61.138452-55.04364L774.841825 660.035824 774.841825 660.035824zM774.841825 660.035824"  horiz-adv-x="1024" />

    
    <glyph glyph-name="jiahao1" unicode="&#58981;" d="M884.39179 419.3117 547.791101 419.3117 547.791101 755.91239c0 19.421483-15.890217 35.3117-35.3117 35.3117l0 0c-19.421483 0-35.3117-15.890217-35.3117-35.3117l0-336.59973L140.567011 419.312659c-19.421483 0-35.3117-15.890217-35.3117-35.3117l0 0c0-19.421483 15.890217-35.3117 35.3117-35.3117l336.59973 0 0-336.59973c0-19.421483 15.890217-35.3117 35.3117-35.3117l0 0c19.421483 0 35.3117 15.890217 35.3117 35.3117L547.790142 348.6883l336.59973 0c19.421483 0 35.3117 15.890217 35.3117 35.3117l0 0C919.703491 403.421483 903.812315 419.3117 884.39179 419.3117z"  horiz-adv-x="1024" />

    
    <glyph glyph-name="sort" unicode="&#58885;" d="M376.938 812.342h-223.256c-20.621 0-39.4-8.469-53.066-22.057-13.604-13.604-22.057-32.399-22.057-53.073l0-223.256c0-20.607 8.469-39.394 22.057-53.059 13.604-13.604 32.399-22.057 53.066-22.057h223.256c20.594 0 39.374 8.453 52.991 22.057l0.070 0.070c13.604 13.617 22.057 32.397 22.057 52.991l-0 223.255c0 20.674-8.453 39.469-22.094 53.036-13.628 13.625-32.416 22.094-53.024 22.094zM415.72 513.956c0-10.688-4.349-20.388-11.336-27.377l-0.070-0.070c-6.987-6.987-16.687-11.339-27.377-11.339l-223.256-0c-10.643 0-20.348 4.376-27.45 11.408-6.987 6.987-11.336 16.687-11.336 27.377l0 223.257c0 10.649 4.373 20.357 11.406 27.456 6.987 6.987 16.687 11.339 27.382 11.339h223.256c10.688 0 20.388-4.352 27.377-11.406 7.032-7.032 11.406-16.74 11.406-27.39l-0-223.256zM618.372 438.839h223.254c20.669 0 39.464 8.453 53.031 22.094 13.625 13.628 22.094 32.415 22.094 53.023v223.256c0 20.674-8.453 39.469-22.094 53.036-13.628 13.625-32.415 22.094-53.031 22.094l-223.254-0c-20.624 0-39.402-8.469-53.068-22.057-13.604-13.604-22.057-32.399-22.057-53.073v-223.256c0-20.607 8.469-39.394 22.057-53.059 13.604-13.605 32.399-22.057 53.068-22.057zM579.582 737.212c0 10.649 4.373 20.357 11.406 27.456 6.987 6.987 16.687 11.339 27.384 11.339h223.254c10.697 0 20.397-4.352 27.384-11.406 7.032-7.032 11.406-16.74 11.406-27.39v-223.256c0-10.688-4.349-20.388-11.406-27.377-7.032-7.032-16.74-11.408-27.384-11.408h-223.254c-10.646 0-20.352 4.376-27.453 11.408-6.987 6.987-11.336 16.687-11.336 27.377v223.256zM376.938 330.59h-223.256c-20.604 0-39.379-8.453-52.996-22.057l-0.070-0.067c-13.612-13.628-22.057-32.399-22.057-52.999v-223.256c0-20.669 8.453-39.461 22.094-53.028 13.628-13.628 32.407-22.097 53.028-22.097h223.256c20.607 0 39.394 8.469 53.059 22.057 13.604 13.607 22.057 32.399 22.057 53.068l0 223.257c0 20.666-8.453 39.461-22.094 53.028-13.626 13.628-32.414 22.094-53.022 22.094zM415.72 32.212c0-10.643-4.373-20.352-11.406-27.45-6.987-6.987-16.687-11.339-27.377-11.339l-223.256 0c-10.695 0-20.394 4.352-27.382 11.406-7.032 7.032-11.406 16.74-11.406 27.384v223.256c0 10.697 4.349 20.394 11.336 27.382l0.070 0.070c6.987 6.987 16.687 11.339 27.382 11.339h223.256c10.688 0 20.388-4.352 27.377-11.408 7.032-7.032 11.406-16.738 11.406-27.382v-223.257zM937.373 3.628l-51.672 34.567c20.497 30.126 32.49 66.494 32.49 105.639 0 51.965-21.074 99.018-55.165 133.032-34.083 34.075-81.137 55.167-133.032 55.167-51.911 0-98.94-21.084-133.070-55.128-34.055-34.055-55.128-81.115-55.128-133.072 0-51.908 21.082-98.94 55.128-133l0.067-0.070c34.062-34.043 81.092-55.128 133.003-55.128 51.63 0 98.42 20.818 132.42 54.562l54.805-36.667c8.309-5.559 19.563-3.339 25.124 4.972 5.559 8.309 3.339 19.564-4.97 25.124zM729.994-8.028c-41.961 0-79.951 16.996-107.417 44.447-27.451 27.467-44.447 65.454-44.447 107.415 0 41.934 17.004 79.914 44.447 107.417 27.467 27.45 65.457 44.447 107.417 44.447 41.977 0 79.959-16.973 107.386-44.439 27.475-27.512 44.479-65.486 44.479-107.426 0-41.961-16.996-79.948-44.479-107.386-27.472-27.476-65.454-44.477-107.386-44.477z"  horiz-adv-x="1024" />

    
    <glyph glyph-name="wode" unicode="&#58931;" d="M182.6 545.8c0 45.8 37.2 83 83.2 83 46 0 83.2-37.2 83.2-83 0-45.8-37.2-83-83.2-83C220 462.8 182.6 500 182.6 545.8zM797.4 264.8c-22.2-137.2-141.2-241.8-284.8-241.8s-262.6 104.8-284.8 241.8c0 0-0.2 28.6 22.2 28.6 26.6 0 33.4-28.6 33.4-28.6 21.2-96.6 126.2-192.6 229.2-192.6s202 96 223.2 192.6c0 0 9.8 28.6 41.4 28.6C803.8 293.4 797.4 264.8 797.4 264.8zM674.8 545.8a41.6 41.5 0 1 0 166.4 0 41.6 41.5 0 1 0-166.4 0ZM512 886.2C234.6 886.2 9.8 661.4 9.8 384c0-277.4 224.8-502.2 502.2-502.2 277.4 0 502.2 224.8 502.2 502.2C1014.2 661.4 789.4 886.2 512 886.2zM512-75C258.4-75 53 130.4 53 384 53 637.6 258.4 843 512 843S971 637.6 971 384C971 130.4 765.6-75 512-75z"  horiz-adv-x="1024" />

    
    <glyph glyph-name="location" unicode="&#59074;" d="M512.706-94.405h-0.705c-16.62 0-32.697 6.894-44.108 18.916-9.013 9.442-90.886 95.915-172.292 205.435-109.92 147.879-165.653 265.774-165.653 350.407 0 210.666 171.388 382.055 382.054 382.055 210.662 0 382.048-171.388 382.048-382.054 0-51.209-19.695-113.914-58.537-186.373-37.455-69.867-93.787-151.036-167.436-241.25l-0.612-0.726-109.622-125.58c-11.617-13.255-28.055-20.832-45.136-20.832zM512.002 804.905c-178.958 0-324.551-145.593-324.551-324.552 0-70.992 53.357-180.299 154.3-316.104 80.718-108.593 164.276-196.407 167.793-200.092 0.668-0.705 1.521-1.060 2.457-1.060h0.705c0.255 0 1.075 0.299 1.854 1.188l109.275 125.181c71.17 87.21 125.335 165.157 160.996 231.682 34.316 64.015 51.716 117.579 51.716 159.206-0 178.958-145.59 324.551-324.545 324.551zM512.002 301.51c-98.615 0-178.843 80.228-178.843 178.843 0 98.614 80.228 178.843 178.843 178.843s178.843-80.229 178.843-178.843c-0-98.615-80.229-178.843-178.843-178.843zM512.002 601.694c-66.907 0-121.341-54.432-121.341-121.34 0-66.907 54.433-121.34 121.341-121.34 66.907 0 121.34 54.433 121.34 121.34 0 66.907-54.433 121.34-121.34 121.34z"  horiz-adv-x="1024" />

    
    <glyph glyph-name="dianhua1" unicode="&#59371;" d="M408.283136 467.897344c29.86496 29.894656 55.898112 48.295936 2.967552 114.188288-52.932608 65.890304-88.241152 15.292416-117.21216-13.68064-33.378304-33.405952-1.758208-157.930496 121.329664-281.042944C538.456064 164.306944 663.011328 132.62848 696.418304 166.063104c28.971008 28.944384 79.541248 64.22016 13.68064 117.179392-65.860608 52.96128-84.293632 26.927104-114.188288-2.963456-20.908032-20.822016-73.696256 22.749184-119.313408 68.337664C430.979072 394.205184 387.376128 447.020032 408.283136 467.897344zM512-102.4c268.63104 0 486.4 217.76896 486.4 486.4S780.63104 870.4 512 870.4 25.6 652.63104 25.6 384 243.36896-102.4 512-102.4zM512-128C229.230592-128 0 101.230592 0 384S229.230592 896 512 896s512-229.230592 512-512S794.769408-128 512-128z"  horiz-adv-x="1024" />

    
    <glyph glyph-name="dengdaishouhuo" unicode="&#58911;" d="M854.112 748.463h-362.242c-55.484 0-100.626-45.47-100.626-101.374l-0.020-100.226h-140.841c-28.687 0-63.278-17.443-80.511-40.558l-72.425-97.309c-16.071-21.557-28.183-58.158-28.183-85.126v-141.916c0-33.531 27.073-60.831 60.379-60.831h31.101c13.468 0.14 24.56 14.56 24.56 28.807 0 15.341-12.821 26.329-25.513 26.329l-25.129-0.086c-8.175-0.020-10.706 4.528-10.811 13.105v108.56c2.188-1.318 4.459-2.221 6.837-2.221l159.409 0.157c33.231-0.157 47.884 18.641 47.764 48.231l0.123 80.807c0 31.984-11.994 48.526-47.884 48.526l-76.086-0.086c1.547 1.946 2.481 3.142 2.481 3.142 6.735 8.716 18.31 15.326 34.084 15.326h140.524c0.033 0 0.069 0.020 0.103 0.020l-0.103-296.134c0-9.963 9.441-18.553 22.512-20.341-10.777-1.962-23.619-8.677-24.125-25.582-0.575-19.7 16.384-28.548 27.491-28.548h183.999c9.058 0 28.672 6.56 28.482 27.301-0.207 20.879-18.171 27.559-27.197 27.559h-174.77c11.437 2.741 18.726 10.585 18.726 19.593l-0.103 451.915c0.157 22.512 16.66 45.836 45.732 45.836h363.284c25.634 0 44.948-24.086 44.948-50.298v-432.113c0-14.752-22.301-34.799-34.001-35.441-11.092-0.608-31.829-3.366-31.744-27.559 0.086-23.116 22.491-26.779 33.601-26.779 43.578 0 86.796 33.201 86.796 100.278v425.677c0 55.903-45.142 101.374-100.626 101.374M283.202 418.225v-67.495h-153.077c-1.282 0-2.567-0.26-3.803-0.642 1.39 6.3 3.383 12.496 6.959 17.634 7.099 10.241 22.369 30.355 37.904 50.503 0.277-0.020 0.522-0.123 0.816-0.123l111.196 0.123zM287.197 229.43c-57.378 0-104.043-47.034-104.043-104.825s46.67-104.813 104.043-104.813c57.378 0 104.062 47.015 104.062 104.813s-46.684 104.825-104.062 104.825M287.197 74.933c-26.203 0.103-49.012 22.945-49.34 50.174-0.311 26.816 21.070 49.635 49.585 49.413 31.031-0.277 49.34-22.77 49.305-49.916-0.033-26.902-21.382-49.74-49.55-49.669M731.458 229.173c-57.378 0-104.043-47.015-104.043-104.813s46.67-104.825 104.043-104.825c57.395 0 104.062 47.034 104.062 104.825s-46.684 104.813-104.062 104.813M731.458 74.71c-26.203 0.069-48.994 22.93-49.326 50.174-0.33 26.816 21.070 49.62 49.568 49.394 31.031-0.277 49.34-22.77 49.305-49.898-0.033-26.938-21.366-49.74-49.55-49.669M592.511 425.219c0-15.238 9.164-27.282 25.844-27.282h95.090c20.1 0 27.301 8.313 27.301 27.508l-0.157 153.077c0.157 16.835-11.365 29.157-27.355 29.157-17.372 0-27.666-12.181-27.403-29.157l0.241-125.461-67.861-0.103c-18.467 0.103-25.707-13.52-25.707-27.732z"  horiz-adv-x="1024" />

    
    <glyph glyph-name="yuyue" unicode="&#58936;" d="M697.6 652.8 697.6 697.6c0 12.8-12.8 25.6-25.6 25.6-12.8 0-25.6-12.8-25.6-25.6l0-44.8L697.6 652.8 697.6 652.8 697.6 652.8 697.6 652.8zM697.6 652.8M396.8 652.8 396.8 697.6c0 12.8-12.8 25.6-25.6 25.6-12.8 0-25.6-12.8-25.6-25.6l0-44.8L396.8 652.8 396.8 652.8 396.8 652.8 396.8 652.8zM396.8 652.8M819.2 326.4c-70.4 0-128-57.6-128-128 0-70.4 57.6-128 128-128 70.4 0 128 57.6 128 128C947.2 268.8 889.6 326.4 819.2 326.4L819.2 326.4 819.2 326.4 819.2 326.4zM902.4 230.4l-89.6-89.6c-6.4-6.4-6.4-6.4-12.8-6.4-6.4 0-6.4 0-12.8 6.4L742.4 192c-6.4 6.4-6.4 19.2 0 25.6 6.4 6.4 19.2 6.4 25.6 0l38.4-38.4 76.8 76.8c6.4 6.4 19.2 6.4 25.6 0C908.8 249.6 908.8 236.8 902.4 230.4L902.4 230.4 902.4 230.4 902.4 230.4zM902.4 230.4M646.4 198.4c0 96 76.8 172.8 172.8 172.8L819.2 601.6c0 25.6-19.2 44.8-44.8 44.8l-83.2 0 0-44.8c0-12.8-12.8-25.6-25.6-25.6-12.8 0-25.6 12.8-25.6 25.6L640 652.8l-256 0 0-44.8c0-12.8-12.8-25.6-25.6-25.6-12.8 0-25.6 12.8-25.6 25.6L332.8 652.8 268.8 652.8c-25.6 0-44.8-19.2-44.8-44.8l0-505.6c0-25.6 19.2-44.8 44.8-44.8l467.2 0C684.8 76.8 646.4 134.4 646.4 198.4L646.4 198.4 646.4 198.4 646.4 198.4zM268.8 480c0 12.8 12.8 25.6 25.6 25.6l460.8 0c12.8 0 25.6-12.8 25.6-25.6 0-12.8-12.8-25.6-25.6-25.6L288 454.4C275.2 460.8 268.8 467.2 268.8 480L268.8 480 268.8 480 268.8 480zM524.8 140.8 326.4 140.8c-12.8 0-25.6 12.8-25.6 25.6 0 12.8 12.8 25.6 25.6 25.6l198.4 0c12.8 0 25.6-12.8 25.6-25.6C544 153.6 537.6 140.8 524.8 140.8L524.8 140.8 524.8 140.8 524.8 140.8zM524.8 281.6 326.4 281.6c-12.8 0-25.6 12.8-25.6 25.6 0 12.8 12.8 25.6 25.6 25.6l198.4 0c12.8 0 25.6-12.8 25.6-25.6C544 288 537.6 281.6 524.8 281.6L524.8 281.6 524.8 281.6 524.8 281.6zM524.8 281.6"  horiz-adv-x="1024" />

    
    <glyph glyph-name="unie601" unicode="&#58912;" d="M768 512q-26.016 0-44.992-19.008t-19.008-44.992 19.008-44.992 44.992-19.008 44.992 19.008 19.008 44.992-19.008 44.992-44.992 19.008zM512 64q-52.992 0-108 12l-151.008-91.008 2.016 148.992q-88 52.992-139.488 135.488t-51.488 178.496q0 104 60 192.512t163.008 140 224.992 51.488q186.016 0 316.992-112.512t131.008-271.488-131.008-271.488-316.992-112.512zM512 896q-139.008 0-256.992-60t-186.496-163.008-68.512-224.992q0-104 51.488-195.488t140.512-153.504l0-227.008 224 136q48.992-8 96-8 139.008 0 256.992 60t186.496 163.008 68.512 224.992-68.512 224.992-186.496 163.008-256.992 60zM256 512q-26.016 0-44.992-19.008t-19.008-44.992 19.008-44.992 44.992-19.008 44.992 19.008 19.008 44.992-19.008 44.992-44.992 19.008zM512 512q-26.016 0-44.992-19.008t-19.008-44.992 19.008-44.992 44.992-19.008 44.992 19.008 19.008 44.992-19.008 44.992-44.992 19.008z"  horiz-adv-x="1024" />

    
    <glyph glyph-name="unie60d" unicode="&#58939;" d="M959.008 489.984l-308 47.008-139.008 295.008-139.008-295.008-308-47.008 223.008-228-52.992-324 276.992 152.992 276.992-152.992-52.992 324zM512 156l-208-116.992 40 235.008-179.008 182.016 242.016 32 104.992 224 104-224 240.992-34.016-176.992-180.992 36.992-235.008z"  horiz-adv-x="1024" />

    
    <glyph glyph-name="wuliu" unicode="&#58947;" d="M416.88 102.3v490.16c0 29.82 24.26 54.081 54.079 54.081h471.33c29.82 0 54.081-24.26 54.081-54.081v-490.16c0-29.82-24.26-54.081-54.081-54.081l-110.639 0v16.38c0 42.94-34.945 77.885-77.895 77.885s-77.89-34.94-77.89-77.885v-16.38h-204.905c-29.82 0.001-54.081 24.261-54.081 54.081zM753.755 175.23c55.446 0 101.495-40.99 109.435-94.26h79.1c11.76 0 21.33 9.57 21.33 21.33l-0 490.16c0 11.765-9.57 21.335-21.33 21.335l-471.33 0c-11.76 0-21.33-9.57-21.33-21.335v-490.16c0-11.76 9.57-21.33 21.33-21.33h173.365c7.939 53.271 53.989 94.26 109.43 94.26zM58.67 102.3v197.95c0 7.88 2.39 22.225 23.060 55.7 12.525 20.28 29.9 44.41 48.92 67.94 19.080 23.605 38.655 45.155 55.11 60.68 28.19 26.59 41.281 30 49.535 30h160.255c29.82 0 54.079-24.255 54.079-54.075v-358.195c0-29.82-24.26-54.081-54.079-54.081h-54.081v16.38c0 42.94-34.945 77.885-77.895 77.885s-77.895-34.94-77.895-77.885v-16.38h-72.93c-29.82 0-54.079 24.26-54.079 54.079zM263.575 175.23c55.446 0 101.495-40.995 109.435-94.26h22.54c11.76 0 21.33 9.57 21.33 21.33v358.195c0 11.765-9.57 21.335-21.33 21.335l-159.589-0c-1.58-0.505-10.23-4-31.545-24.74-15.455-15.041-33.61-35.39-51.115-57.295-17.57-21.975-33.425-44.21-44.66-62.6-17.030-27.885-17.22-36.585-17.22-36.945v-197.95c0-11.76 9.565-21.33 21.33-21.33h41.395c7.934 53.271 53.984 94.26 109.429 94.26zM58.67 255.6v44.65c0 35.575 66.385 117.050 79.695 133.020l4.905 5.89h139.16c29.82 0 54.081-24.255 54.081-54.070v-75.415c0-29.815-24.26-54.075-54.081-54.075h-223.759zM158.66 406.42c-17.825-21.815-34.19-44.175-46.495-63.575-20.515-32.34-20.745-42.19-20.745-42.595v-11.905h191.010c11.76 0 21.33 9.57 21.33 21.33v75.415c0 11.76-9.57 21.33-21.33 21.33l-123.77-0zM152.935 64.595c0 61.005 49.635 110.635 110.64 110.635s110.64-49.63 110.64-110.635-49.635-110.635-110.64-110.635-110.64 49.63-110.64 110.635zM185.68 64.6c0-42.95 34.945-77.895 77.895-77.895s77.895 34.945 77.895 77.895c0 42.94-34.945 77.885-77.895 77.885s-77.895-34.941-77.895-77.885zM643.12 64.595c0 61.005 49.63 110.635 110.635 110.635 61.010 0 110.64-49.63 110.64-110.635s-49.63-110.635-110.64-110.635c-61.005-0-110.635 49.63-110.635 110.635zM675.865 64.6c0-42.95 34.94-77.895 77.89-77.895s77.895 34.945 77.895 77.895c0 42.94-34.945 77.885-77.895 77.885s-77.89-34.941-77.89-77.885z"  horiz-adv-x="1024" />

    
    <glyph glyph-name="pintuan" unicode="&#59111;" d="M701.407 647.393c-50.591 50.596-117.858 78.457-189.406 78.457-71.549 0-138.816-27.861-189.412-78.457-50.591-50.591-78.452-117.858-78.452-189.408 0-55.303 16.719-108.394 48.353-153.535 26.445-37.743 61.623-67.677 102.626-87.542l-42.234-143.695c-3.881-13.204 3.673-27.045 16.871-30.926 13.204-3.881 27.045 3.677 30.926 16.876l54.929 186.889-21.485 8.22c-40.794 15.603-75.658 42.842-100.835 78.766-25.732 36.722-39.335 79.925-39.335 124.947 0 58.241 22.682 112.999 63.866 154.177 41.183 41.184 95.941 63.866 154.182 63.866 58.239 0 112.998-22.682 154.181-63.866 41.184-41.183 63.861-95.937 63.861-154.177 0-45.022-13.598-88.225-39.331-124.947-25.176-35.924-60.046-63.163-100.835-78.766l-21.485-8.22 54.929-186.889c3.188-10.857 13.118-17.893 23.885-17.893 2.328 0 4.694 0.328 7.036 1.017 13.198 3.881 20.753 17.722 16.876 30.926l-42.234 143.695c41.003 19.865 76.181 49.798 102.626 87.542 31.634 45.141 48.353 98.232 48.353 153.535 0 71.549-27.861 138.816-78.457 189.408v0zM178.607 293.856c-15.617 22.288-23.87 48.515-23.87 75.844 0 43.9 21.717 84.871 58.089 109.581 11.379 7.731 14.334 23.224 6.603 34.603-7.73 11.38-23.223 14.335-34.603 6.605-50.039-33.995-79.91-90.368-79.91-150.788 0-37.616 11.375-73.725 32.893-104.437 16.34-23.314 37.578-42.247 62.236-55.651l-46.656-135.305c-4.486-13.004 2.423-27.182 15.426-31.667 2.689-0.932 5.431-1.368 8.12-1.368 10.334 0 19.993 6.481 23.551 16.796l61.847 179.349-22.502 8.609c-24.764 9.474-45.935 26.013-61.224 47.83v0zM886.191 265.267c21.518 30.707 32.893 66.817 32.893 104.432 0 60.059-29.59 116.233-79.155 150.275-11.341 7.788-26.849 4.908-34.637-6.433-7.787-11.341-4.908-26.849 6.433-34.636 36.028-24.745 57.538-65.568 57.538-109.206 0-27.329-8.253-53.557-23.87-75.844-15.289-21.817-36.461-38.356-61.224-47.83l-22.502-8.609 61.847-179.349c3.559-10.316 13.218-16.796 23.551-16.796 2.689 0 5.431 0.442 8.12 1.368 13.004 4.485 19.912 18.663 15.426 31.667l-46.656 135.31c24.659 13.399 45.896 32.332 62.236 55.651v0zM886.191 265.267z"  horiz-adv-x="1024" />

    
    <glyph glyph-name="lottery" unicode="&#59064;" d="M535.845 505.656l-23.845 116.078-22.045-115.807c-24.025-4.319-47.060-15.746-65.687-34.283-48.41-48.501-48.41-126.965 0-175.375 48.411-48.41 126.965-48.41 175.375 0 48.501 48.501 48.501 126.965 0 175.375-18.086 18.086-40.402 29.513-63.797 34.013M792.024 103.976v0l-176.365 176.365c-18.896-18.896-41.662-31.493-65.687-37.972l64.607-241.062c-33.023-8.818-67.487-13.317-102.579-13.317s-69.466 4.589-102.489 13.317l64.607 241.062c-24.115 6.389-46.791 19.075-65.687 37.972l-176.365-176.365c-50.93 50.93-85.123 112.477-102.399 177.534l240.882 64.517c-6.658 24.835-6.658 51.020 0 75.855l-240.882 64.517c17.276 65.057 51.38 126.605 102.31 177.534l176.365-176.365c18.896 18.896 41.572 31.493 65.687 37.972l-64.517 241.062c33.023 8.728 67.396 13.317 102.489 13.317s69.466-4.589 102.579-13.317l-64.607-241.062c24.025-6.389 46.791-19.075 65.687-37.972l176.365 176.365c49.941-49.941 84.943-110.948 102.669-177.444l-241.151-64.607c6.658-24.835 6.658-51.020 0-75.855l241.062-64.607c-17.726-66.496-52.64-127.505-102.579-177.444M830.176 702.086c-85.033 84.943-197.961 131.734-318.176 131.734-120.127 0-233.143-46.791-318.086-131.734-85.033-84.943-131.824-197.961-131.824-318.086 0-120.216 46.791-233.143 131.824-318.176 84.943-85.033 197.961-131.734 318.086-131.734 120.216 0 233.143 46.791 318.176 131.734 85.033 84.943 131.734 197.961 131.734 318.176 0 120.127-46.791 233.143-131.734 318.086z"  horiz-adv-x="1024" />

    
    <glyph glyph-name="youhuiquan1" unicode="&#59110;" d="M309.385 525.362h36.839v-118.785h-36.839v118.785zM309.385 361.292h36.839v-118.785h-36.839v118.785zM980.674 507.373v164.255c0 20.261-16.578 36.839-36.839 36.839h-863.67c-20.261 0-36.839-16.578-36.839-36.839v-163.921c52.778-16.529 91.074-65.811 91.074-124.039s-38.296-107.511-91.074-124.039v-163.255c0-20.261 16.578-36.839 36.839-36.839h863.67c20.261 0 36.839 16.578 36.839 36.839v162.922c-52.778 16.529-91.074 65.811-91.074 124.039 0 58.229 38.296 107.511 91.074 124.039zM852.76 383.334c0-63.874 35.658-120.658 91.074-148.707v-138.188c-0.019-0.023-0.043-0.047-0.065-0.065h-597.544l0 82.429h-36.839v-82.429h-229.155c-0.023 0.019-0.047 0.043-0.065 0.065l-0 138.521c55.416 28.050 91.074 84.833 91.074 148.707s-35.658 120.657-91.074 148.707v139.188c0.019 0.023 0.043 0.047 0.065 0.065h229.154v-82.562h36.839v82.562l597.544-0c0.023-0.019 0.047-0.043 0.067-0.067v-139.521c-55.416-28.048-91.074-84.832-91.074-148.706zM714.102 361.381c9.849 0 17.908 8.059 17.908 17.908v1.023c0 9.849-8.059 17.908-17.908 17.908h-82.834l91.429 91.429c6.965 6.965 6.965 18.361 0 25.326l-0.723 0.723c-6.965 6.965-18.361 6.965-25.326 0l-89.686-89.686-89.686 89.686c-6.965 6.965-18.361 6.965-25.326 0l-0.723-0.723c-6.965-6.965-6.965-18.361 0-25.326l91.429-91.429h-82.864c-9.849 0-17.908-8.059-17.908-17.908v-1.023c0-9.849 8.059-17.908 17.908-17.908h88.75v-45.537h-88.75c-9.849 0-17.908-8.059-17.908-17.908v-1.023c0-9.849 8.059-17.908 17.908-17.908h88.75v-41.912c0-9.849 8.059-17.908 17.908-17.908h1.023c9.849 0 17.908 8.059 17.908 17.908l-0 41.912h88.72c9.849 0 17.908 8.059 17.908 17.908v1.023c0 9.849-8.059 17.908-17.908 17.908h-88.72v45.537l88.72 0z"  horiz-adv-x="1024" />

    
    <glyph glyph-name="faq" unicode="&#58882;" d="M512.537-36.027v-0.027c-231.099 0-419.133 188.034-419.133 419.133 0 231.126 188.007 419.133 419.133 419.133s419.133-188.007 419.133-419.133c0-85.581-25.462-167.469-73.741-237.491l36.098-126.29c3.799-13.307 2.017-25.803-5.030-35.128-8.828-11.71-24.781-16.267-41.573-11.474l-139.047 39.739c-60.015-31.724-127.521-48.462-195.84-48.462v0zM705.81 57.413l0.027 0.027c1.99 0 4.007-0.289 5.946-0.813l137.737-39.373-36.124 126.473c-1.834 6.392-0.629 13.308 3.3 18.704 46.864 64.442 71.619 140.751 71.619 220.7 0 207.209-168.569 375.78-375.779 375.78s-375.779-168.57-375.779-375.78c0-207.208 168.569-375.779 375.779-375.779 63.997 0 127.181 16.373 182.715 47.336 3.249 1.807 6.89 2.724 10.557 2.724v0zM512.537 238.583c-11.972 0-21.69 9.718-21.69 21.69v86.709c0 37.041 27.977 54.173 50.453 67.952 27.217 16.687 50.715 31.094 50.715 76.57 0 43.826-35.679 79.478-79.478 79.478s-79.478-35.652-79.478-79.478c0-11.972-9.693-21.69-21.69-21.69-11.998 0-21.69 9.693-21.69 21.69 0 67.743 55.115 122.859 122.858 122.859s122.858-55.116 122.858-122.859c0-69.759-41.258-95.064-71.409-113.533-21.611-13.228-29.759-19.358-29.759-30.989v-86.709c-0-11.972-9.718-21.69-21.69-21.69v0zM534.227 180.769c0-11.972-9.718-21.691-21.69-21.691-11.972 0-21.69 9.719-21.69 21.691 0 11.971 9.718 21.69 21.69 21.69 11.972 0 21.69-9.719 21.69-21.69v0z"  horiz-adv-x="1024" />

    
    <glyph glyph-name="huodong1" unicode="&#58934;" d="M912.49 418.909c3.657-8.829 5.79-18.386 5.79-28.476v-357.148c0-42.257-35.271-76.524-78.801-76.524l-630.361 0c-43.509 0-81.71 32.146-81.71 74.418v347.275c0 10.102 5.041 31.651 8.697 40.454-33.5 8.805-58.307 38.213-58.307 73.571l0 127.55c0 42.271 30.909 80.896 74.416 80.896h322.472l-126.641 104.926c-10.344 10.041-10.344 26.32 0 36.373 10.367 10.078 27.13 10.078 37.5 0l131.174-127.395c4.966-4.82 7.389-11.132 7.582-17.455 0.218 6.323 2.617 12.597 7.606 17.455l131.148 127.395c10.368 10.078 27.131 10.078 37.499 0 10.344-10.054 10.344-26.333 0-36.373l-101.837-104.926h297.665c43.529 0 74.416-38.626 74.416-80.896l0-127.55c-0.001-35.357-24.757-64.764-58.308-73.571v0zM813.196 7.779c29.020 0 58.381 20.047 58.381 48.204v297.665c0 28.162-20.616 74.419-49.61 74.419h-272.865l1.455-420.288 262.639 0zM235.378 7.779h262.662l1.453 420.288-272.861-0c-28.996 0-49.611-21.451-49.611-49.611v-322.471c0-0.001 2.915-47.027 58.356-48.206zM130.32 594.509v-76.522c0-28.161 17.706-40.311 46.703-40.311h322.471l0 173.639h-322.471c0 0-47.227-6.884-46.703-56.806zM918.28 594.509c0 28.174-17.71 56.808-46.706 56.808h-322.471v-173.642h322.472c28.997 0 46.706 12.15 46.706 40.311l-0.001 76.523z"  horiz-adv-x="1024" />

    
    <glyph glyph-name="address" unicode="&#58989;" d="M511.615 653.816c-64.742 0-117.228-52.48-117.228-117.228 0-64.738 52.486-117.221 117.228-117.221 64.744 0 117.221 52.482 117.221 117.221 0 64.748-52.477 117.228-117.221 117.228zM511.615 465.414c-38.962 0-70.551 31.113-70.551 69.481 0 38.38 31.588 69.481 70.551 69.481 38.972 0 70.544-31.101 70.544-69.481 0-38.369-31.572-69.481-70.544-69.481zM511.566 794.517c-138.761 0-257.837-141.443-257.837-257.928 0-203.924 242.246-393.761 251.985-402.517l5.279-3.801h1.313l8.555 7.069c3.193 9.997 247.398 200.856 248.635 399.25 0.702 110.168-119.152 257.927-257.929 257.927zM511.575 184.647c-28.138 26.611-210.954 204.3-210.954 351.942 0 103.666 106.361 210.838 210.954 210.838 0 0 205.826-20.418 211.043-210.838 3.919-143.586-184.546-323.003-211.043-351.942zM511.618-26.063c-221.346 0-445.439 49.704-445.439 144.718 0 78.437 145.267 114.084 231.832 128.348l7.647-46.247c-140.298-23.124-192.59-62.64-192.59-82.101 0-39.882 155.249-97.829 398.551-97.829 243.279 0 398.529 57.947 398.529 97.829 0 19.415-52.154 58.863-192.063 82.031l7.647 46.247c86.381-14.309 231.305-49.979 231.305-128.279-0.001-95.014-224.072-144.718-445.419-144.718z"  horiz-adv-x="1024" />

    
    <glyph glyph-name="shouhou" unicode="&#58913;" d="M466.725 563.211c73.788 0 133.812 60.023 133.812 133.812s-60.024 133.812-133.812 133.812-133.812-60.023-133.812-133.812 60.024-133.812 133.812-133.812zM466.725 786.23c49.188 0 89.208-40.019 89.208-89.208 0-49.2-40.019-89.208-89.208-89.208s-89.208 40.008-89.208 89.208c-0 49.188 40.019 89.208 89.208 89.208zM756.65 293.997c73.788 0 133.812 60.023 133.812 133.812s-60.024 133.812-133.812 133.812-133.812-60.023-133.812-133.812 60.023-133.812 133.812-133.812zM756.65 517.017c49.188 0 89.208-40.008 89.208-89.208s-40.019-89.208-89.208-89.208c-49.188 0-89.208 40.008-89.208 89.208s40.019 89.208 89.208 89.208zM957.933 113.992c-8.505 31.405-44.985 90.798-122.17 90.798h-186.158c-0.302 0.384-0.499 0.792-0.805 1.176-33.061 41.402-83.556 65.142-138.516 65.142h-83.349c-53.423 65.446-142.354 83.183-183.228 87.988v24.109c0 12.327-9.985 22.302-22.302 22.302l-133.813-0c-12.317 0-22.302-9.975-22.302-22.302v-401.435c0-12.327 9.985-22.302 22.302-22.302h133.812c12.317 0 22.302 9.975 22.302 22.302v30.826c56.81-26.18 170.572-75.43 222.856-75.43 0.098 0 0.207 0 0.305 0 127.125 0.523 464.050 144.374 478.326 150.495 10.215 4.378 15.637 15.594 12.741 26.332zM199.102 4.073h-89.208v356.83h89.208v-356.83zM466.692-18.229c-0.065 0-0.131 0-0.207 0-44.506 0-165.917 53.133-222.78 80.066v252.203c38.081-5.222 114.206-22.405 154.077-78.193 4.181-5.858 10.944-9.343 18.142-9.343h94.358c41.326 0 79.113-17.641 103.669-48.372 10.302-12.894 17.282-26.353 20.864-40.248h-260.076c-12.317 0-22.302-9.975-22.302-22.302s9.985-22.302 22.302-22.302h285.221c12.317 0 22.302 9.975 22.302 22.302 0 15.318-2.73 30.192-7.788 44.604h161.288c39.975 0 61.047-23.195 71.131-40.226-75.868-31.537-339.070-137.776-440.202-138.189z"  horiz-adv-x="1024" />

    
    <glyph glyph-name="tag25fuben" unicode="&#58988;" d="M511.95 835.83c-247.365 0-447.905-200.54-447.905-447.905 0-247.366 200.54-447.906 447.905-447.906s447.905 200.54 447.905 447.906c0 247.366-200.54 447.905-447.905 447.905zM731.2 213.828c8.911-8.81 8.911-23.12 0-31.95-8.911-8.829-23.36-8.829-32.271 0l-179.634 177.904-179.636-177.905c-8.911-8.829-23.36-8.829-32.271 0-8.91 8.83-8.91 23.14 0 31.95l182.51 180.75-184.154 182.354c-8.971 8.871-8.971 23.28 0 32.171 8.991 8.89 23.521 8.89 32.491 0l181.059-179.289 181.041 179.289c8.971 8.89 23.521 8.89 32.491 0 8.971-8.89 8.971-23.3 0-32.171l-184.134-182.353 182.509-180.75z"  horiz-adv-x="1024" />

    
    <glyph glyph-name="success" unicode="&#59049;" d="M512.423649 892.86459c-281.370319 0-509.465271-228.093928-509.465271-509.465271S231.052307-126.065951 512.423649-126.065951s509.464247 228.094952 509.464247 509.465271S793.793968 892.86459 512.423649 892.86459zM787.789207 516.515083l-332.608284-336.974731c-9.752108-9.854439-22.533202-14.767332-35.305087-14.767332s-25.552979 4.912893-35.305087 14.767332L235.966223 330.175117c-19.533892 19.701714-19.555381 51.667753-0.050142 71.405283 19.48989 19.738553 51.135634 19.760043 70.663386 0.044002l113.298416-114.978684 297.29501 301.334c19.526729 19.723204 51.158147 19.686365 70.669526-0.036839C807.338449 568.197162 807.315936 536.232147 787.789207 516.515083z"  horiz-adv-x="1024" />

    
    <glyph glyph-name="shouyeshouye" unicode="&#58963;" d="M921.764 377.116l-412.854 386.018-412.854-384.884c-8.077-7.53-8.527-20.193-0.979-28.261 7.54-8.063 20.218-8.518 28.289-0.971l385.514 359.379 385.531-360.473c3.868-3.614 8.778-5.401 13.678-5.401 5.335 0 10.673 2.119 14.61 6.336 7.555 8.063 7.139 20.714-0.935 28.256l0 0zM921.764 377.116zM795.781 369.187c-11.05 0-20.015-8.959-20.015-19.995l0-306.597-160.123 0 0 213.284-213.495 0 0-213.284-160.118 0 0 306.597c0 11.036-8.955 19.995-20.014 19.995-11.065 0-20.018-8.959-20.018-19.995l0-346.586 240.183 0 0 213.283 133.434 0 0-213.283 240.177 0 0 346.586c0.001 11.036-8.965 19.995-20.011 19.995l0 0zM795.781 369.187zM655.677 655.786l120.089 0 0-106.64c0-11.053 8.965-20 20.015-20 11.047 0 20.012 8.947 20.012 20l0 146.629-160.117 0c-11.053 0-20.018-8.942-20.018-19.995-0.001-11.049 8.965-19.995 20.018-19.995l0 0zM655.677 655.786z"  horiz-adv-x="1024" />

    
    <glyph glyph-name="mendian" unicode="&#59218;" d="M960.50688 528.896c-0.04608 0.512-0.17408 0.95744-0.22016 1.3312-0.44544 1.88928-0.9728 3.73248-1.6896 5.50912l-76.91264 190.98112c-13.32224 39.61344-51.51744 63.90272-96.27648 63.99488L245.94944 790.71232c-45.34272 0-80.5376-24.06912-93.28128-62.12608l-82.62144-194.8672c-0.39936-1.15712-0.79872-2.8416-1.17248-4.57728-6.016-18.38592-9.01632-37.27872-9.01632-56.2176 0.06656-66.65728 36.67968-127.45216 95.54432-158.80704 0 0 0-0.04608 0.02048-0.04608 0.04096 0 0.04096 0 0.04096-0.04608l0 0c0 0 0.02048 0 0.02048-0.04096 24.24832-12.92288 52.736-19.40992 84.84352-19.40992 53.82656 0.13312 103.6288 23.71584 137.62048 64.12288 33.77664-40.05376 83.22048-63.49824 136.96-63.85664 53.28896 0.44032 102.58432 23.936 136.2432 63.98976 33.97632-40.36608 83.8912-63.90272 137.9328-63.90272 32.68608 0.1792 61.76768 7.01952 86.28736 20.4288 57.95328 31.62112 93.9264 92.25728 93.88032 158.22848C969.344 492.54912 966.23616 511.60064 960.50688 528.896L960.50688 528.896 960.50688 528.896zM843.93472 364.5184c-14.83264-8.12544-33.39264-12.29824-54.93248-12.3904-39.92576 0-76.29312 20.20352-97.56672 54.5536-1.5104 3.26656-4.08576 8.61696-8.75008 13.78816-5.45792 6.06208-15.27296 13.23008-31.44192 13.23008-13.10208 0-24.91392-5.32992-31.57504-13.50144-4.43904-5.0176-6.84032-9.94816-8.57088-13.52192-21.00736-33.90464-57.06752-54.33344-96.18944-54.64576-39.63392 0.22528-75.8272 20.60288-96.9472 54.7584-1.46432 3.0208-3.93216 8.10496-7.77216 12.3904-15.4112 18.36032-49.91488 17.408-63.34976 1.41824-4.95104-5.41696-7.552-10.85952-9.216-14.52032-21.16096-33.92512-57.6-54.31296-97.36704-54.4-21.16096 0-39.32672 3.9936-53.9136 11.77088l-0.06656 0-0.04608 0c-37.504 19.9168-69.18656 67.05664-69.21216 109.4656 0 12.52352 2.06336 25.17504 6.28736 37.4784 0.31232 0.88576 0.55296 1.86368 0.79872 2.8672l81.3824 200.35072c1.664 4.92544 6.7072 19.85024 32 19.85024l556.39552 0c10.43456-0.59904 28.33408-2.44224 34.68288-21.13536l76.20608-197.77536c0.26624-1.37728 0.61952-2.688 0.9728-3.75296 4.26496-12.34432 6.30272-24.89344 6.30272-37.3248C912.14336 431.57504 880.83968 384.66048 843.93472 364.5184L843.93472 364.5184 843.93472 364.5184zM872.70912 267.8016c-18.11968 0-28.60032-14.65344-28.60032-32.73216l0.09216-182.74304c0-10.16832-8.30464-18.432-18.47296-18.46784l-633.64608-0.39936c-10.16832 0-18.42688 8.21248-18.42688 18.29376l-0.24576 179.72224c-0.02048 18.02752-10.52672 32.64-28.60032 32.64L144.7424 264.1152c-18.0736-0.04608-28.55424-14.69952-28.52864-32.81408l0.22016-175.41632c0-46.14144 37.6832-83.712 83.99872-83.712l617.0368 0.39936c46.27456 0.09216 83.93728 37.74464 83.93728 83.93216l-0.09216 178.57024C901.30944 253.184 890.8288 267.8016 872.70912 267.8016L872.70912 267.8016 872.70912 267.8016zM771.10272 505.2928 246.48192 505.2928c-18.11968 0-32.79872 10.50112-32.79872 28.55424 0 18.02752 14.69952 28.55424 32.79872 28.55424l524.6208 0c18.11456 0 32.768-10.52672 32.768-28.55424C803.87584 515.79904 789.2224 505.2928 771.10272 505.2928L771.10272 505.2928 771.10272 505.2928z"  horiz-adv-x="1024" />

    
    <glyph glyph-name="search" unicode="&#58881;" d="M142.904 416.41c0 185.144 150.072 335.217 335.217 335.217 185.149 0 335.222-150.077 335.222-335.217 0-185.144-150.072-335.222-335.222-335.222-185.144 0-335.217 150.077-335.217 335.222v0zM725.381 110.269l177.838-177.797 51.538 51.553-177.132 177.178c58.609 68.7 94.008 157.814 94.008 255.201 0 217.334-176.179 393.513-393.518 393.513-217.339 0-393.513-176.179-393.513-393.513 0-217.339 176.179-393.523 393.513-393.523 93.676 0.005 179.697 32.737 247.265 87.388v0z"  horiz-adv-x="1024" />

    
    <glyph glyph-name="app-copy" unicode="&#58884;" d="M61.577 274.7v120.808c0 11.070 9.090 20.123 20.229 20.123h213.477l-92.945-161.063h-120.533c-11.138 0-20.228 9.022-20.228 20.132zM213.645 27.325l-68.128-46.156c-9.167-6.24-15.649-2.279-14.378 8.714l9.090 78.981c1.266 10.992 10.187 15.496 19.832 9.99l52.725-30.12c9.631-5.527 10.027-15.206 0.86-21.409zM230.005 71.838l-52.724 30.12c-9.641 5.526-13.037 17.872-7.429 27.474l244.143 423.207c5.535 9.621 18.026 12.994 27.657 7.419l52.725-30.061c9.641-5.574 12.963-17.93 7.428-27.513l-244.139-423.247c-5.53-9.602-18.026-12.888-27.661-7.4zM415.821 254.568l92.939 161.062h53.517l75.475-161.062h-221.931zM718.528 206.499c-21.108 10.529-126.229 252.002-153.16 315.006-26.962 63.002-108.376 230.711-82.044 243.752 18.74 9.361 85.994-122.702 136.41-201.972 50.349-79.291 155.634-283.716 168.588-306.997 12.886-23.339-12.403-42.795-26.469-48.609-14.075-5.837-22.228-11.633-43.325-1.18zM787.607 95.504l-31.761 49.962c-6.57 10.375-3.159 23.204 7.496 28.69l30.275 15.496c10.675 5.429 24.034 1.044 29.715-9.835l25.058-47.972c5.699-10.856 1.815-24.788-8.463-30.911l-21.648-12.888c-10.277-6.222-24.101-2.84-30.671 7.457zM904.503-35.525c-6.636 21.156-57.303 22.567-79.985 54.445-22.759 31.762-3.951 48.125 3.95 55.68 92.003 51.586 76.035-110.125 76.035-110.125zM951.847 274.7c0-11.109-9.090-20.132-20.229-20.132l-106.859-0c-1.178 6.2-3.091 12.422-6.318 18.238-2.782 4.965-9.815 18.314-19.61 36.959-14.142 26.892-34.458 65.361-56.202 105.865h188.98c11.138 0 20.228-9.052 20.228-20.123v-120.808h0.009z"  horiz-adv-x="1024" />

    
    <glyph glyph-name="alipay" unicode="&#58937;" d="M492.343 118.489c-67.093-32.018-144.129-51.939-227.552-32.27-83.424 19.678-142.626 73.023-132.453 171.512 10.192 98.496 115.478 132.461 202.070 132.461 86.622 0 250.938-56.122 250.938-56.122s13.807 30.937 27.222 66.307c13.405 35.365 17.21 63.785 17.21 63.785h-349.909v35.067h169.995v67.087l-211.925-1.526v44.218h211.925v100.63h111.304v-100.629h227.182v-44.218l-227.181-1.524v-62.511l187.584-1.526s-3.391-35.067-27.17-98.852c-23.755-63.783-46.061-96.312-46.061-96.312l284.478-93.345v442.079c0 98.969-80.231 179.2-179.2 179.2h-537.6c-98.969 0-179.2-80.231-179.2-179.2v-537.6c0-98.969 80.231-179.2 179.2-179.2h537.6c82.487 0 151.773 55.806 172.624 131.668l-328.214 155.588s-65.782-72.748-132.867-104.767zM297.978 336.129c-104.456-6.649-129.974-52.605-129.974-94.891s25.792-101.073 148.548-101.073c122.727 0 226.909 123.77 226.909 123.77s-141.057 78.842-245.483 72.194z"  horiz-adv-x="1024" />

    
    <glyph glyph-name="jifenshangcheng" unicode="&#58892;" d="M958.614827 532.037614c0 63.86147-52.785204 115.800399-117.674073 115.8004h-261.516132L713.756073 780.043035c11.903098 11.683087 11.903098 30.569226 0 42.254359-11.862165 11.683087-31.029714 11.683087-42.932811 0l-159.789263-157.248393L353.156272 820.415534c-11.864212 11.683087-31.070646 11.683087-42.932812 0a29.534663 29.534663 0 0 1 0-42.257429l132.439359-130.35079H183.03571c-64.885799 0-117.650537-51.937906-117.650537-115.8004 0-57.015551 42.174542-104.261599 97.408517-113.795742v-391.620306c0-49.430806 36.982286-89.650833 82.423221-89.650832H778.821975c45.419446 0 82.423221 40.22105 82.423221 89.650832v391.649982c55.172577 9.505491 97.369631 56.750515 97.369631 113.796765z m-832.544527 0c0 30.901801 25.558096 56.033178 56.94699 56.033178h298.597679v-112.064308H183.01729c-31.388894 0-56.94699 25.131377-56.94699 56.03113zM778.781042-3.293767H245.195422c-11.564383 0-21.694091 13.984503-21.694092 29.884634V416.241308h258.113639v-167.287027c0-16.527418 13.595646-29.884634 30.354332-29.884634 16.779152 0 30.374798 13.357216 30.374798 29.884634V416.241308h258.134105v-389.650441c-0.001023-15.899108-10.151197-29.884634-21.697162-29.884634z m62.159712 479.300251H542.343075V588.070792h298.597679c31.40936 0 56.944943-25.1324 56.944943-56.033178 0-30.899754-25.53456-56.031131-56.944943-56.03113z"  horiz-adv-x="1024" />

    
    <glyph glyph-name="wxpay" unicode="&#58916;" d="M373.029 264.046c-4.389-2.926-10.24-4.389-16.091-4.389-13.166 0-23.406 7.314-29.257 17.554l-2.926 4.389-93.623 204.8c-1.463 2.926-1.463 4.389-1.463 7.314 0 8.777 7.314 17.554 17.554 17.554 4.389 0 7.314-1.463 10.24-2.926l109.714-78.994c7.314-5.851 17.554-8.777 27.794-8.777 5.851 0 11.703 1.463 17.554 2.926l517.851 231.131c-93.623 109.714-245.76 181.394-418.377 181.394-282.331 0-512-191.634-512-427.154 0-128.731 68.754-244.297 177.006-321.829 8.777-5.851 14.629-16.091 14.629-27.794 0-4.389-1.463-7.314-1.463-10.24-8.777-32.183-21.943-83.383-23.406-86.309-1.463-4.389-2.926-8.777-2.926-13.166 0-8.777 7.314-17.554 17.554-17.554 4.389 0 7.314 1.463 10.24 2.926l112.64 64.366c8.777 4.389 17.554 7.314 27.794 7.314 5.851 0 10.24-1.463 14.629-2.926 52.663-14.629 108.251-23.406 166.766-23.406 282.331 0 512 191.634 512 427.154 0 71.68-20.48 138.971-58.514 197.486l-590.994-337.92-2.926-2.926z"  horiz-adv-x="1025" />

    
    <glyph glyph-name="rank" unicode="&#58906;" d="M139.44 798.34v-55.678h131.283v-602.072l410.34-259.56 387.347 259.44v602.192h128.093v55.678h-1057.063zM1012.727 171.262l-1.523-0.952-330.688-223.878-1.705 1.018-352.4 224.824v570.388h686.316v-571.4zM416.093 541.27h503.758v-55.683h-503.758v55.684zM416.093 389.793h503.758v-55.678h-503.758v55.678z"  horiz-adv-x="1336" />

    
    <glyph glyph-name="wodepinglun" unicode="&#59063;" d="M207.872 354.304c-11.776 0-24.064 11.776-24.064 24.064v184.32c0 47.616 35.84 83.456 83.456 83.456h333.824c11.776 0 24.064-11.776 24.064-24.064 0-11.776-6.144-17.92-17.92-17.92h-339.456c-17.92 0-35.84-17.92-35.84-41.984v-190.976c0-11.264-12.288-16.896-24.064-16.896zM589.312-33.28c-17.92 0-29.696 6.144-41.984 17.92l-107.52 101.376h-166.4c-47.616 0-83.456 35.84-83.456 83.456v107.52h-77.312c-41.984 0-77.312 35.84-77.312 83.456v363.52c0 41.984 35.84 77.312 77.312 77.312h524.8c41.984 0 83.456-35.84 83.456-83.456v-77.312h184.832c47.616 6.144 83.456-29.696 83.456-77.312v-387.584c0-47.616-35.84-83.456-83.456-83.456h-166.912l-107.52-113.152c-11.776-6.656-29.696-12.288-41.984-12.288zM112.64 759.808c-17.92 0-29.696-17.92-29.696-35.84v-363.52c0-24.064 11.776-35.84 29.696-35.84h95.232c11.776 0 24.064-11.776 24.064-24.064v-125.44c0-24.064 17.92-41.984 41.984-41.984h178.688c6.144 0 11.776 0 17.92-6.144l113.152-113.152c6.144-6.144 11.776-6.144 17.92 0l113.152 113.152c6.144 6.144 11.776 6.144 17.92 6.144h178.688c24.064 0 41.984 17.92 41.984 41.984v387.584c0 24.064-17.92 41.984-41.984 41.984h-208.896c-11.776 0-24.064 11.776-24.064 24.064v95.232c0 17.92-17.92 35.84-35.84 35.84h-529.92zM887.808 348.16c0-11.776-11.776-24.064-24.064-24.064h-542.72c-11.776 0-24.064 11.776-24.064 24.064 0 11.776 11.776 24.064 24.064 24.064h548.352c12.288 0 18.432-12.288 18.432-24.064z"  horiz-adv-x="1024" />

    
    <glyph glyph-name="liuyan" unicode="&#58904;" d="M368.413 394.3c0-28.25-22.936-51.093-51.233-51.093-28.25 0-51.186 22.842-51.186 51.094 0 28.25 22.936 51.185 51.186 51.185 28.297 0 51.233-22.935 51.233-51.185zM955.006 422.643c0 213.137-199.057 386.555-443.803 386.555-244.743 0-443.801-173.418-443.801-386.555 0-126.615 71.325-245.209 190.946-317.465v-121.86c0-8.674 4.755-16.597 12.354-20.606 3.496-1.959 7.18-2.89 11.142-2.89 4.568 0 9.044 1.305 12.96 3.913l56.221 37.11a18.411 18.411 0 0 1 2.704 2.052l63.587 42.33c31.7-5.967 63.306-9.045 93.982-9.045 244.65 0.092 443.708 173.419 443.708 386.461zM293.405 139.115c-112.163 63.213-179.06 169.223-179.06 283.622 0 187.218 178.035 339.565 396.857 339.565 218.825 0 396.858-152.347 396.858-339.565S729.98 83.173 511.203 83.173c-30.581 0-62.28 3.357-94.167 9.977-6.06 1.397-12.494 0.092-17.808-3.452l-74.402-49.6c-1.026-0.56-2.518-1.865-2.518-1.865l-16.97-11.189v91.652c0 8.483-4.614 16.224-11.933 20.419zM570.968 408.659c0-28.25-22.936-51.28-51.28-51.28-28.25 0-51.186 23.03-51.186 51.28s22.936 51.093 51.187 51.093c28.343 0 51.279-22.843 51.279-51.093zM771.145 408.659c0-28.25-22.937-51.28-51.187-51.28-28.25 0-51.187 23.03-51.187 51.28s22.936 51.093 51.187 51.093c28.25 0 51.187-22.843 51.187-51.093z"  horiz-adv-x="1024" />

    
    <glyph glyph-name="level-5" unicode="&#58940;" d="M605.908714 255.19932200000005c3.811925-26.681428 17.776697-40.676916 41.92708-41.92708 30.492329 1.251188 46.990193 25.400547 49.550931 72.419409-2.560737 38.116179-18.433008 58.424944-47.644456 60.985681-20.338458-1.280881-34.304254-13.995489-41.92708-38.116179l-72.419409 1.905451 9.5293 198.200649h205.8245v-47.644456h-142.934391l-3.811925-89.571536c16.49684 16.49684 37.460892 24.774953 62.891132 24.774954 67.327627-2.560737 101.631881-41.301486 102.912762-116.252964-6.372662-69.889388-47.644456-107.37895-123.87579-112.441039-72.419409 1.280881-109.911018 30.492329-112.441039 87.666086h72.418385zM401.743933 624.2956469999999L214.911482 405.811829V624.2956469999999H101.869423v-0.21092H64.147439v-37.59707h37.721984v-415.377989h113.042059l375.391172 452.975059z"  horiz-adv-x="1024" />

    
    <glyph glyph-name="level-3" unicode="&#58941;" d="M604.003264 264.728622c1.251188-30.492329 15.246676-47.644456 41.92708-51.45638 26.681428 2.531045 41.272817 19.683171 43.833554 51.45638-1.280881 38.116179-28.586878 56.51847-81.948709 55.268306V367.641384c55.892876 1.250164 83.199898 19.057578 81.948709 53.361832-1.280881 29.211448-15.246676 44.458125-41.92708 45.739005-22.869503-3.811925-36.209705-19.057578-40.021629-45.739005H533.488281c3.811925 60.985682 41.92708 92.728174 114.347513 95.288911 71.138528-6.372662 109.254707-34.959541 114.347513-85.759611-1.280881-45.739005-22.869503-73.70029-64.796582-83.85416 44.458125-12.715632 66.702033-43.207961 66.702033-91.47801-6.372662-53.361831-46.394292-82.603996-120.064889-87.666086-76.231334 0-114.347513 32.398803-114.347513 97.195386h74.326908zM401.743933 624.2956469999999L214.911482 405.811829V624.2956469999999H101.869423v-0.21092H64.147439v-37.59707h37.721984v-415.377989h113.042059l375.391172 452.975059z"  horiz-adv-x="1024" />

    
    <glyph glyph-name="level-1" unicode="&#58942;" d="M563.981634 459.118371c30.492329 13.965796 59.079207 30.492329 85.760635 49.549906h68.608508v-337.323116h-74.325884V436.248868c-24.150383-17.807414-50.831811-32.398803-80.043259-43.833555v66.703058zM401.743933 624.2956469999999L214.911482 405.811829V624.2956469999999H101.869423v-0.21092H64.147439v-37.59707h37.721984v-415.377989h113.042059l375.391172 452.975059z"  horiz-adv-x="1024" />

    
    <glyph glyph-name="level-4" unicode="&#58943;" d="M663.082471 243.76457H525.865455v64.796583l137.217016 200.1061h70.513958v-209.635401h47.644456v-55.268306H733.596429v-72.419409h-70.513958v72.420433z m0 175.332171l-81.94871-120.063865h81.94871V419.096741zM401.743933 624.295647L214.911482 405.811829V624.295647H101.869423v-0.21092H64.147439v-37.59707h37.721984v-415.377989h113.042059l375.391172 452.975059z"  horiz-adv-x="1024" />

    
    <glyph glyph-name="level-6" unicode="&#58945;" d="M697.386725 426.719567c0 15.246676-3.186331 26.025117-9.529301 32.398804-7.622826 5.062089-17.152127 7.622826-28.586878 7.622826-30.492329-1.280881-46.394292-34.959541-47.644456-101.006287 15.246676 16.495816 36.209705 24.774953 62.891132 24.774953 66.047771-3.811925 101.006287-38.770442 104.818212-104.818212 0-33.053066-9.529301-60.360088-28.586878-81.94871-25.43024-22.869503-57.828019-34.928824-97.195386-36.209705-78.792071 0-118.158414 47.644456-118.158414 142.934392-3.811925 138.466156 40.6462 207.074664 133.40509 205.823475 66.047771-3.811925 99.725407-33.67866 101.006288-89.571536h-72.419409z m-40.02163-85.759611c-27.962308-1.280881-43.207961-22.244933-45.739005-62.891132 2.531045-41.92708 17.776697-63.545395 45.739005-64.796582 29.211448 1.251188 44.458125 22.869503 45.739005 64.796582-1.280881 40.6462-16.527557 61.610252-45.739005 62.891132zM401.743933 624.2956469999999L214.911482 405.811829V624.2956469999999H101.869423v-0.21092H64.147439v-37.59707h37.721984v-415.377989h113.042059l375.391172 452.975059z"  horiz-adv-x="1024" />

    
    <glyph glyph-name="level-7" unicode="&#58946;" d="M754.560481 508.668277v-62.890108L649.741245 171.34516099999996h-72.419409l108.630137 282.055834H535.394756v55.267282h219.165725zM401.743933 624.2956469999999L214.911482 405.811829V624.2956469999999H101.869423v-0.21092H64.147439v-37.59707h37.721984v-415.377989h113.042059l375.391172 452.975059z"  horiz-adv-x="1024" />

    
    <glyph glyph-name="level-2" unicode="&#58948;" d="M529.67738 239.953669c5.062089 6.341946 18.403315 18.403315 40.02163 36.209705 83.85416 71.138528 125.126978 120.063865 123.87579 146.745292-2.560737 27.931592-16.527557 42.552674-41.927081 43.833555-25.43024-2.560737-39.39706-19.712864-41.92708-51.456381h-74.325883c1.251188 64.796583 40.02163 98.44555 116.252963 101.006287 74.950454-3.811925 113.692226-35.584111 116.252964-95.288911 2.531045-40.676916-34.304254-90.852417-110.535588-150.556194-26.681428-22.869503-44.487817-39.39706-53.361831-49.55093h165.803894v-49.550931H529.67738v68.608508zM401.743933 624.2956469999999L214.911482 405.811829V624.2956469999999H101.869423v-0.21092H64.147439v-37.59707h37.721984v-415.377989h113.042059l375.391172 452.975059z"  horiz-adv-x="1024" />

    
    <glyph glyph-name="level-8" unicode="&#58949;" d="M602.096789 350.489257c-43.207961 12.685939-64.796583 38.115155-64.796583 76.231334 5.062089 53.361831 43.833555 83.198874 116.252964 89.571536 76.231334-3.811925 115.597677-33.67866 118.158414-89.571536-3.811925-40.676916-26.055834-66.077463-66.702033-76.231334 45.739005-12.715632 69.233078-41.30251 70.513958-85.760635-5.092806-60.985682-45.739005-93.383461-121.970339-97.195386-78.792071 2.560737-119.439295 34.928824-121.970339 97.195386 2.531045 41.92708 26.026141 69.858672 70.513958 83.854161v1.906474z m55.268306 26.680404c29.211448 2.531045 44.458125 17.776697 45.739005 45.739005-1.280881 27.931592-18.433008 42.552674-51.456381 43.833555-29.242165-2.560737-44.487817-17.152127-45.739005-43.833555 1.251188-29.242165 18.403315-44.488841 51.456381-45.739005z m-1.906474-163.897419c29.211448 2.531045 45.083719 20.308765 47.644455 53.361831-2.560737 34.304254-19.057578 52.080951-49.55093 53.361831-30.492329-2.560737-46.394292-20.338458-47.644456-53.361831 1.252212-34.304254 17.777721-52.110644 49.550931-53.361831zM401.743933 624.295647L214.911482 405.811829V624.295647H101.869423v-0.21092H64.147439v-37.59707h37.721984v-415.377989h113.042059l375.391172 452.975059z"  horiz-adv-x="1024" />

    
    <glyph glyph-name="level-9" unicode="&#58950;" d="M607.814165 255.199322c5.062089-27.962308 17.152127-41.92708 36.209704-41.92708 38.116179 0 55.268306 35.555442 51.456381 106.723662-19.057578-15.246676-41.30251-22.244933-66.702033-20.964052-60.985682 6.341946-94.664342 40.6462-101.006287 102.911738 5.062089 71.138528 45.083719 109.254707 120.064888 114.34649 82.57328 1.251188 123.221527-48.925336 121.97034-150.556194 1.251188-72.419409-7.622826-123.25122-26.681428-152.462668-20.338458-30.492329-52.737261-45.739005-97.195386-45.739006-73.70029-1.251188-111.190875 27.931592-112.441039 87.666086h74.32486z m43.833554 93.383461c27.931592 1.251188 42.552674 20.307742 43.833555 57.172732-1.280881 39.366343-15.900939 59.704801-43.833555 60.985682-31.773209 0-47.644456-20.338458-47.644455-60.985682 0-38.115155 15.871246-57.172733 47.644455-57.172732zM401.743933 624.295647L214.911482 405.811829V624.295647H101.869423v-0.21092H64.147439v-37.59707h37.721984v-415.377989h113.042059l375.391172 452.975059z"  horiz-adv-x="1024" />

    
    <glyph glyph-name="level-10" unicode="&#58951;" d="M563.981634 459.118371c30.492329 13.965796 59.079207 30.492329 85.760635 49.549906h68.608508v-337.323116h-74.325884V436.248868c-24.150383-17.807414-50.831811-32.398803-80.043259-43.833555v66.703058zM922.268802 167.533236c-74.980146 1.280881-113.721919 58.424944-116.252964 171.52127 2.531045 116.877534 41.272817 175.956741 116.252964 177.237621 78.762379-1.279857 119.409602-60.360088 121.970339-177.237621-1.280881-113.096325-41.92708-170.240389-121.970339-171.52127z m1.906474 299.207961c-29.242165-1.280881-43.833555-43.833555-43.833554-127.686691 0-82.603996 14.59139-124.531077 43.833554-125.782264 29.211448 1.251188 43.833555 43.178268 43.833555 125.782264-0.001024 83.85416-14.622106 126.405811-43.833555 127.686691zM401.743933 624.295647L214.911482 405.811829V624.295647H101.869423v-0.21092H64.147439v-37.59707h37.721984v-415.377989h113.042059l375.391172 452.975059z"  horiz-adv-x="1044" />

    
    <glyph glyph-name="level-11" unicode="&#58952;" d="M563.981634 459.118371c30.492329 13.965796 59.079207 30.492329 85.760635 49.549906h68.608508v-337.323116h-74.325884V436.248868c-24.150383-17.807414-50.831811-32.398803-80.043259-43.833555v66.703058zM834.602716 459.118371c30.492329 13.965796 59.079207 30.492329 85.760635 49.549906h68.608508v-337.323116h-74.325883V436.248868c-24.150383-17.807414-50.831811-32.398803-80.04326-43.833555v66.703058zM401.743933 624.295647L214.911482 405.811829V624.295647H101.869423v-0.21092H64.147439v-37.59707h37.721984v-415.377989h113.042059l375.391172 452.975059z"  horiz-adv-x="1024" />

    
    <glyph glyph-name="level-12" unicode="&#58953;" d="M563.981634 459.118371c30.492329 13.965796 59.079207 30.492329 85.760635 49.549906h68.608508v-337.323116h-74.325884V436.248868c-24.150383-17.807414-50.831811-32.398803-80.043259-43.833555v66.703058zM800.298463 239.953669c5.062089 6.341946 18.403315 18.403315 40.021629 36.209705 83.85416 71.138528 125.126978 120.063865 123.87579 146.745292-2.560737 27.931592-16.527557 42.552674-41.92708 43.833555-25.43024-2.560737-39.39706-19.712864-41.92708-51.456381H806.015838c1.251188 64.796583 40.02163 98.44555 116.252964 101.006287 74.950454-3.811925 113.692226-35.584111 116.252964-95.288911 2.531045-40.676916-34.304254-90.852417-110.535588-150.556194-26.681428-22.869503-44.487817-39.39706-53.361832-49.55093h165.803894v-49.550931H800.298463v68.608508zM401.743933 624.295647L214.911482 405.811829V624.295647H101.869423v-0.21092H64.147439v-37.59707h37.721984v-415.377989h113.042059l375.391172 452.975059z"  horiz-adv-x="1040" />

    
    <glyph glyph-name="level-13" unicode="&#58954;" d="M563.981634 459.118371c30.492329 13.965796 59.079207 30.492329 85.760635 49.549906h68.608508v-337.323116h-74.325884V436.248868c-24.150383-17.807414-50.831811-32.398803-80.043259-43.833555v66.703058zM874.624346 264.728622c1.251188-30.492329 15.246676-47.644456 41.92708-51.45638 26.681428 2.531045 41.272817 19.683171 43.833555 51.45638-1.280881 38.116179-28.586878 56.51847-81.94871 55.268306V367.641384c55.892876 1.250164 83.199898 19.057578 81.94871 53.361832-1.280881 29.211448-15.246676 44.458125-41.92708 45.739005-22.869503-3.811925-36.209705-19.057578-40.02163-45.739005h-74.325883c3.811925 60.985682 41.92708 92.728174 114.347513 95.288911 71.138528-6.372662 109.254707-34.959541 114.347513-85.759611-1.280881-45.739005-22.869503-73.70029-64.796583-83.85416 44.458125-12.715632 66.702033-43.207961 66.702033-91.47801-6.372662-53.361831-46.394292-82.603996-120.064888-87.666086-76.231334 0-114.347513 32.398803-114.347513 97.195386h74.325883zM401.743933 624.295647L214.911482 405.811829V624.295647H101.869423v-0.21092H64.147439v-37.59707h37.721984v-415.377989h113.042059l375.391172 452.975059z"  horiz-adv-x="1034" />

    
    <glyph glyph-name="level-14" unicode="&#58955;" d="M563.981634 459.118371c30.492329 13.965796 59.079207 30.492329 85.760635 49.549906h68.608508v-337.323116h-74.325884V436.248868c-24.150383-17.807414-50.831811-32.398803-80.043259-43.833555v66.703058zM933.703553 243.76457H796.487561v64.796583L933.704577 508.667253h70.513959v-209.635401h47.644455v-55.268306h-47.644455v-72.419409H933.704577v72.420433z m0 175.332171l-81.94871-120.063865h81.94871V419.096741zM401.743933 624.295647L214.911482 405.811829V624.295647H101.869423v-0.21092H64.147439v-37.59707h37.721984v-415.377989h113.042059l375.391172 452.975059z"  horiz-adv-x="1051" />

    
    <glyph glyph-name="level-15" unicode="&#58956;" d="M563.981634 459.118371c30.492329 13.965796 59.079207 30.492329 85.760635 49.549906h68.608508v-337.323116h-74.325884V436.248868c-24.150383-17.807414-50.831811-32.398803-80.043259-43.833555v66.703058zM876.530821 255.199322c3.811925-26.681428 17.776697-40.676916 41.92708-41.92708 30.492329 1.251188 46.990193 25.400547 49.55093 72.419409-2.560737 38.116179-18.433008 58.424944-47.644456 60.985681-20.338458-1.280881-34.304254-13.995489-41.92708-38.116179l-72.419409 1.905451 9.529301 198.200649h205.824499v-47.644456h-142.934391l-3.811925-89.571536c16.49684 16.49684 37.460892 24.774953 62.891132 24.774954 67.327627-2.560737 101.631881-41.301486 102.912762-116.252964-6.372662-69.889388-47.644456-107.37895-123.87579-112.441039-72.419409 1.280881-109.911018 30.492329-112.441039 87.666086h72.418386zM401.743933 624.295647L214.911482 405.811829V624.295647H101.869423v-0.21092H64.147439v-37.59707h37.721984v-415.377989h113.042059l375.391172 452.975059z"  horiz-adv-x="1040" />

    
    <glyph glyph-name="nv" unicode="&#58961;" d="M34.133 760.013v-752.026c0-56.183 45.67-101.854 101.854-101.854h752.026c56.183 0 101.854 45.67 101.854 101.854v752.026c-0 56.183-45.67 101.854-101.854 101.854h-752.026c-56.183 0-101.854-45.67-101.854-101.854zM0 760.013c0 75.093 60.962 135.987 135.987 135.987h752.026c75.093 0 135.987-60.962 135.987-135.987v-752.026c0-75.093-60.962-135.987-135.987-135.987h-752.026c-75.093 0-135.987 60.962-135.987 135.987v752.026zM612.489 596.173c83.149-82.944 80.896-219.819-5.052-305.63-85.879-85.811-222.959-88.064-306.108-4.983-83.149 83.012-80.896 219.819 5.052 305.63 85.879 85.811 222.959 88.064 306.108 5.052zM629.214 238.319l-49.698 49.698c-3.686 3.686-5.966 8.779-5.966 14.404 0 11.25 9.12 20.371 20.371 20.371 5.625 0 10.718-2.28 14.404-5.966l48.128-48.196 91.819 101.99c3.745 4.155 9.147 6.756 15.155 6.756 11.253 0 20.376-9.122 20.376-20.376 0-5.244-1.981-10.026-5.236-13.637l-93.236-103.542 86.084-86.153c3.672-3.68 5.942-8.76 5.942-14.37 0-11.237-9.109-20.347-20.347-20.347-5.627 0-10.721 2.284-14.404 5.976l-84.651 84.583-102.332-113.732c-3.743-4.134-9.13-6.72-15.121-6.72-11.252 0-20.373 9.121-20.373 20.373 0 5.261 1.994 10.056 5.267 13.671l103.75 115.217zM332.459 316.621c66.492-66.423 176.128-64.649 244.873 3.959 68.745 68.676 70.588 178.176 4.096 244.599-66.56 66.423-176.196 64.58-244.941-4.028-68.745-68.608-70.588-178.176-4.096-244.531z"  horiz-adv-x="1024" />

    
    <glyph glyph-name="nan" unicode="&#58962;" d="M34.133 760.013v-752.026c0-56.183 45.67-101.854 101.854-101.854h752.026c56.183 0 101.854 45.67 101.854 101.854v752.026c-0 56.183-45.67 101.854-101.854 101.854h-752.026c-56.183 0-101.854-45.67-101.854-101.854zM0 760.013c0 75.093 60.962 135.987 135.987 135.987h752.026c75.093 0 135.987-60.962 135.987-135.987v-752.026c0-75.093-60.962-135.987-135.987-135.987h-752.026c-75.093 0-135.987 60.962-135.987 135.987v752.026zM613.103 172.1c83.627 83.49 81.374 221.184-4.983 307.473-86.426 86.289-224.256 88.542-307.883 5.052-83.627-83.558-81.374-221.184 4.983-307.473 86.426-86.289 224.324-88.542 307.883-5.052zM780.356 624.367c0.515 1.776 0.811 3.816 0.811 5.926 0 12.178-9.872 22.050-22.050 22.050-1.814 0-3.576-0.219-5.263-0.632-2.299 1.139-5.16 1.793-8.172 1.811l-218.118 3.545c-0.042 0-0.091 0-0.141 0-11.575 0-20.958-9.383-20.958-20.958 0-0.144 0.001-0.288 0.004-0.432 0.204-11.652 9.967-21.892 21.777-22.097l179.814-2.935-115.302-115.098c-3.947-3.962-6.386-9.428-6.386-15.463 0-6.137 2.523-11.684 6.587-15.662 8.401-8.332 22.532-8.674 31.134-0.14l114.483 114.347 2.935-178.039c0.516-11.924 10.17-21.43 22.106-21.709 0.155-0.004 0.322-0.006 0.491-0.006 11.575 0 20.958 9.383 20.958 20.958 0 0.026-0 0.052-0 0.078l-3.618 218.176c-0.018 2.295-0.406 4.494-1.107 6.548zM331.571 453.359c66.901 66.765 177.152 64.99 246.306-4.096 69.154-68.949 70.997-179.063 4.096-245.897-66.901-66.833-177.22-64.99-246.374 4.028s-70.997 179.132-4.096 245.965z"  horiz-adv-x="1024" />

    
    <glyph glyph-name="mendianzitidaihexiaosvg" unicode="&#58901;" d="M174.254 480.71c-15.74 0-28.5 12.76-28.5 28.5V658.192c0 55.722 45.333 101.054 101.054 101.054H388c15.74 0 28.5-12.76 28.5-28.5s-12.76-28.5-28.5-28.5H246.808c-24.292 0-44.054-19.763-44.054-44.054V509.21c0-15.74-12.76-28.5-28.5-28.5zM393.146 0.5H246.808c-55.722 0-101.054 45.333-101.054 101.055V242c0 15.74 12.76 28.5 28.5 28.5s28.5-12.76 28.5-28.5v-140.445c0-24.292 19.763-44.055 44.054-44.055h146.338c15.74 0 28.5-12.76 28.5-28.5s-12.76-28.5-28.5-28.5zM791.164 0.5H614c-15.74 0-28.5 12.76-28.5 28.5s12.76 28.5 28.5 28.5h177.164c24.292 0 44.055 19.763 44.055 44.055V253.034c0 15.74 12.76 28.5 28.5 28.5s28.5-12.76 28.5-28.5v-151.479c0-55.722-45.333-101.055-101.055-101.055zM863.719 490.5c-15.74 0-28.5 12.76-28.5 28.5V658.192c0 24.292-19.763 44.054-44.055 44.054H604c-15.74 0-28.5 12.76-28.5 28.5s12.76 28.5 28.5 28.5h187.164c55.722 0 101.055-45.333 101.055-101.054V519c0-15.74-12.76-28.5-28.5-28.5zM907.992 353.33H120.216c-15.74 0-28.5 12.761-28.5 28.5 0 15.74 12.76 28.5 28.5 28.5h787.776c15.74 0 28.5-12.76 28.5-28.5 0-15.739-12.76-28.5-28.5-28.5z"  horiz-adv-x="1024" />

    
    <glyph glyph-name="info" unicode="&#58983;" d="M448 592c0 26.4 21.6 48 48 48h32c26.4 0 48-21.6 48-48v-32c0-26.4-21.6-48-48-48h-32c-26.4 0-48 21.6-48 48v32zM640 128h-256v64h64v192h-64v64h192v-256h64zM512 896C229.216 896 0 666.784 0 384s229.216-512 512-512 512 229.216 512 512S794.784 896 512 896z m0-928C282.24-32 96 154.24 96 384S282.24 800 512 800s416-186.24 416-416-186.24-416-416-416z"  horiz-adv-x="1024" />

    
    <glyph glyph-name="dagou" unicode="&#58891;" d="M512 896a512 512 0 1 1 512-512A512 512 0 0 1 512 896z m0-955.733333a443.733333 443.733333 0 1 0 443.733333 443.733333 443.733333 443.733333 0 0 0-443.733333-443.733333zM753.322667 577.194667l-313.685334-313.685334-168.96 168.618667A34.133333 34.133333 0 1 1 222.208 384l193.194667-193.194667a34.133333 34.133333 0 0 1 48.128 0l337.92 337.92a34.133333 34.133333 0 1 1-48.128 48.128z"  horiz-adv-x="1024" />

    
    <glyph glyph-name="wujiaoxing" unicode="&#58897;" d="M513.266347 11.799893q-472.81152-329.66656-310.647467 226.05824Q-254.75072 588.957013 320.0512 605.32736q190.149973 546.655573 383.228587 1.024 574.890667-13.243733 119.40864-366.81728 165.157547-554.827093-309.42208-227.734187z"  horiz-adv-x="1024" />

    
    </font>
</defs>
</svg>
